<svg width="368" height="132" viewBox="0 0 368 132" fill="none" xmlns="http://www.w3.org/2000/svg">
<g clip-path="url(#clip0_111_7880)">
<path d="M0 20C0 8.9543 8.95431 0 20 0H348C359.046 0 368 8.95431 368 20V112C368 123.046 359.046 132 348 132H20C8.9543 132 0 123.046 0 112V20Z" fill="url(#paint0_linear_111_7880)"/>
<path d="M19 71.94V65.64L37.48 49.17C38.92 47.89 39.92 46.68 40.48 45.54C41.04 44.4 41.32 43.3 41.32 42.24C41.32 40.8 41.01 39.52 40.39 38.4C39.77 37.26 38.91 36.36 37.81 35.7C36.73 35.04 35.48 34.71 34.06 34.71C32.56 34.71 31.23 35.06 30.07 35.76C28.93 36.44 28.04 37.35 27.4 38.49C26.76 39.63 26.46 40.86 26.5 42.18H19.06C19.06 39.3 19.7 36.79 20.98 34.65C22.28 32.51 24.06 30.85 26.32 29.67C28.6 28.49 31.23 27.9 34.21 27.9C36.97 27.9 39.45 28.52 41.65 29.76C43.85 30.98 45.58 32.68 46.84 34.86C48.1 37.02 48.73 39.51 48.73 42.33C48.73 44.39 48.45 46.12 47.89 47.52C47.33 48.92 46.49 50.21 45.37 51.39C44.27 52.57 42.9 53.88 41.26 55.32L28.15 66.93L27.49 65.13H48.73V71.94H19ZM69.6822 72.9C66.8622 72.9 64.3222 72.24 62.0622 70.92C59.8222 69.58 58.0422 67.73 56.7222 65.37C55.4022 63.01 54.7422 60.3 54.7422 57.24V44.1C54.7422 40.82 55.3922 37.97 56.6922 35.55C58.0122 33.13 59.8522 31.26 62.2122 29.94C64.5922 28.62 67.3522 27.96 70.4922 27.96C72.6722 27.96 74.7422 28.33 76.7022 29.07C78.6622 29.79 80.4022 30.95 81.9222 32.55L76.7022 37.62C75.9422 36.72 75.0122 36.01 73.9122 35.49C72.8322 34.97 71.6922 34.71 70.4922 34.71C68.8122 34.71 67.3422 35.11 66.0822 35.91C64.8222 36.69 63.8422 37.72 63.1422 39C62.4622 40.28 62.1222 41.65 62.1222 43.11V50.28L60.8022 48.84C62.0422 47.4 63.5322 46.28 65.2722 45.48C67.0122 44.66 68.8322 44.25 70.7322 44.25C73.4522 44.25 75.8522 44.87 77.9322 46.11C80.0122 47.33 81.6522 49.01 82.8522 51.15C84.0522 53.27 84.6522 55.69 84.6522 58.41C84.6522 61.11 83.9622 63.56 82.5822 65.76C81.2222 67.94 79.4122 69.68 77.1522 70.98C74.8922 72.26 72.4022 72.9 69.6822 72.9ZM69.6822 65.97C71.0822 65.97 72.3622 65.64 73.5222 64.98C74.6822 64.3 75.6022 63.39 76.2822 62.25C76.9822 61.09 77.3322 59.81 77.3322 58.41C77.3322 57.01 76.9922 55.73 76.3122 54.57C75.6322 53.41 74.7122 52.49 73.5522 51.81C72.4122 51.11 71.1422 50.76 69.7422 50.76C68.3422 50.76 67.0622 51.11 65.9022 51.81C64.7422 52.49 63.8222 53.41 63.1422 54.57C62.4622 55.73 62.1222 57.01 62.1222 58.41C62.1222 59.77 62.4522 61.03 63.1122 62.19C63.7922 63.33 64.7022 64.25 65.8422 64.95C67.0022 65.63 68.2822 65.97 69.6822 65.97ZM103.618 72.9C101.418 72.9 99.3678 72.45 97.4678 71.55C95.5678 70.63 93.9278 69.37 92.5478 67.77C91.1878 66.17 90.2078 64.31 89.6078 62.19L96.5678 60.33C96.8478 61.49 97.3578 62.49 98.0978 63.33C98.8578 64.17 99.7378 64.82 100.738 65.28C101.758 65.74 102.808 65.97 103.888 65.97C105.288 65.97 106.568 65.63 107.728 64.95C108.888 64.27 109.808 63.36 110.488 62.22C111.168 61.06 111.508 59.78 111.508 58.38C111.508 56.98 111.158 55.71 110.458 54.57C109.778 53.41 108.858 52.5 107.698 51.84C106.538 51.16 105.268 50.82 103.888 50.82C102.228 50.82 100.848 51.12 99.7478 51.72C98.6678 52.32 97.8378 52.96 97.2578 53.64L91.0778 51.66L92.3978 28.8H115.858V35.58H96.2678L98.9678 33.03L98.0078 48.93L96.6878 47.31C97.8078 46.29 99.1078 45.53 100.588 45.03C102.068 44.53 103.498 44.28 104.878 44.28C107.578 44.28 109.968 44.9 112.048 46.14C114.148 47.36 115.788 49.03 116.968 51.15C118.168 53.27 118.768 55.68 118.768 58.38C118.768 61.08 118.068 63.53 116.668 65.73C115.268 67.91 113.418 69.65 111.118 70.95C108.838 72.25 106.338 72.9 103.618 72.9Z" fill="white"/>
<path d="M17.12 101V89.48H21.672C21.784 89.48 21.9173 89.4853 22.072 89.496C22.2267 89.5013 22.376 89.5173 22.52 89.544C23.144 89.64 23.6667 89.8533 24.088 90.184C24.5147 90.5147 24.8347 90.9333 25.048 91.44C25.2613 91.9413 25.368 92.4987 25.368 93.112C25.368 93.72 25.2587 94.2773 25.04 94.784C24.8267 95.2853 24.5067 95.704 24.08 96.04C23.6587 96.3707 23.1387 96.584 22.52 96.68C22.376 96.7013 22.2267 96.7173 22.072 96.728C21.9173 96.7387 21.784 96.744 21.672 96.744H18.544V101H17.12ZM18.544 95.392H21.624C21.7253 95.392 21.84 95.3867 21.968 95.376C22.1013 95.3653 22.2267 95.3467 22.344 95.32C22.712 95.2347 23.0107 95.08 23.24 94.856C23.4747 94.6267 23.6453 94.36 23.752 94.056C23.8587 93.7467 23.912 93.432 23.912 93.112C23.912 92.792 23.8587 92.48 23.752 92.176C23.6453 91.8667 23.4747 91.5973 23.24 91.368C23.0107 91.1387 22.712 90.984 22.344 90.904C22.2267 90.872 22.1013 90.8533 21.968 90.848C21.84 90.8373 21.7253 90.832 21.624 90.832H18.544V95.392ZM30.5656 101.24C29.707 101.24 28.9656 101.045 28.3416 100.656C27.723 100.267 27.2456 99.728 26.9096 99.04C26.5736 98.352 26.4056 97.5627 26.4056 96.672C26.4056 95.7653 26.5763 94.9707 26.9176 94.288C27.259 93.6053 27.7416 93.0747 28.3656 92.696C28.9896 92.312 29.723 92.12 30.5656 92.12C31.4296 92.12 32.1736 92.3147 32.7976 92.704C33.4216 93.088 33.899 93.624 34.2296 94.312C34.5656 94.9947 34.7336 95.7813 34.7336 96.672C34.7336 97.5733 34.5656 98.368 34.2296 99.056C33.8936 99.7387 33.4136 100.275 32.7896 100.664C32.1656 101.048 31.4243 101.24 30.5656 101.24ZM30.5656 99.888C31.4616 99.888 32.1283 99.5893 32.5656 98.992C33.003 98.3947 33.2216 97.6213 33.2216 96.672C33.2216 95.696 33.0003 94.92 32.5576 94.344C32.115 93.7627 31.451 93.472 30.5656 93.472C29.963 93.472 29.467 93.608 29.0776 93.88C28.6883 94.152 28.3976 94.528 28.2056 95.008C28.0136 95.488 27.9176 96.0427 27.9176 96.672C27.9176 97.6427 28.1416 98.4213 28.5896 99.008C29.0376 99.5947 29.6963 99.888 30.5656 99.888ZM39.634 101.232C38.6047 101.232 37.7593 101.008 37.098 100.56C36.442 100.107 36.0393 99.4747 35.89 98.664L37.346 98.432C37.4633 98.9013 37.7327 99.2747 38.154 99.552C38.5753 99.824 39.098 99.96 39.722 99.96C40.314 99.96 40.778 99.8373 41.114 99.592C41.45 99.3467 41.618 99.0133 41.618 98.592C41.618 98.3467 41.562 98.1493 41.45 98C41.338 97.8453 41.106 97.7013 40.754 97.568C40.4073 97.4347 39.882 97.2747 39.178 97.088C38.4153 96.8853 37.8153 96.6747 37.378 96.456C36.9407 96.2373 36.6287 95.984 36.442 95.696C36.2553 95.408 36.162 95.0587 36.162 94.648C36.162 94.1413 36.3007 93.6987 36.578 93.32C36.8553 92.936 37.242 92.64 37.738 92.432C38.2393 92.224 38.8207 92.12 39.482 92.12C40.138 92.12 40.7247 92.224 41.242 92.432C41.7593 92.64 42.1753 92.936 42.49 93.32C42.81 93.6987 42.9993 94.1413 43.058 94.648L41.602 94.912C41.5327 94.448 41.3087 94.0827 40.93 93.816C40.5567 93.5493 40.074 93.408 39.482 93.392C38.922 93.3707 38.466 93.4693 38.114 93.688C37.7673 93.9067 37.594 94.2027 37.594 94.576C37.594 94.784 37.658 94.9627 37.786 95.112C37.9193 95.2613 38.162 95.4027 38.514 95.536C38.8713 95.6693 39.3887 95.8213 40.066 95.992C40.8287 96.184 41.4287 96.3947 41.866 96.624C42.3087 96.848 42.6233 97.1147 42.81 97.424C42.9967 97.728 43.09 98.104 43.09 98.552C43.09 99.384 42.7833 100.04 42.17 100.52C41.5567 100.995 40.7113 101.232 39.634 101.232ZM45.0144 90.832V89.36H46.4384V90.832H45.0144ZM45.0144 101V92.36H46.4384V101H45.0144ZM53.6628 101C53.1508 101.101 52.6441 101.141 52.1428 101.12C51.6468 101.104 51.2041 101.005 50.8148 100.824C50.4254 100.637 50.1294 100.349 49.9268 99.96C49.7561 99.6187 49.6628 99.2747 49.6468 98.928C49.6361 98.576 49.6308 98.1787 49.6308 97.736V89.96H51.0548V97.672C51.0548 98.024 51.0574 98.3253 51.0628 98.576C51.0734 98.8267 51.1294 99.0427 51.2308 99.224C51.4228 99.5653 51.7268 99.7653 52.1428 99.824C52.5641 99.8827 53.0708 99.8667 53.6628 99.776V101ZM47.8788 93.536V92.36H53.6628V93.536H47.8788ZM55.5769 90.832V89.36H57.0009V90.832H55.5769ZM55.5769 101V92.36H57.0009V101H55.5769ZM61.7373 101L58.6013 92.36H60.0413L62.4653 99.184L64.8813 92.36H66.3293L63.1933 101H61.7373ZM71.2078 101.24C70.3598 101.24 69.6184 101.053 68.9838 100.68C68.3544 100.301 67.8638 99.776 67.5118 99.104C67.1598 98.4267 66.9838 97.6373 66.9838 96.736C66.9838 95.792 67.1571 94.976 67.5038 94.288C67.8504 93.5947 68.3331 93.0613 68.9518 92.688C69.5758 92.3093 70.3064 92.12 71.1438 92.12C72.0131 92.12 72.7518 92.32 73.3598 92.72C73.9731 93.12 74.4318 93.6907 74.7358 94.432C75.0451 95.1733 75.1784 96.056 75.1358 97.08H73.6958V96.568C73.6798 95.5067 73.4638 94.7147 73.0478 94.192C72.6318 93.664 72.0131 93.4 71.1918 93.4C70.3118 93.4 69.6424 93.6827 69.1838 94.248C68.7251 94.8133 68.4958 95.624 68.4958 96.68C68.4958 97.6987 68.7251 98.488 69.1838 99.048C69.6424 99.608 70.2958 99.888 71.1438 99.888C71.7144 99.888 72.2104 99.7573 72.6318 99.496C73.0531 99.2347 73.3838 98.8587 73.6238 98.368L74.9918 98.84C74.6558 99.6027 74.1491 100.195 73.4718 100.616C72.7998 101.032 72.0451 101.24 71.2078 101.24ZM68.0158 97.08V95.936H74.3998V97.08H68.0158ZM83.3231 101V89.48H87.8751C87.9871 89.48 88.1205 89.4853 88.2751 89.496C88.4298 89.5013 88.5791 89.5173 88.7231 89.544C89.3471 89.64 89.8698 89.8533 90.2911 90.184C90.7178 90.5147 91.0378 90.9333 91.2511 91.44C91.4645 91.9413 91.5711 92.4987 91.5711 93.112C91.5711 94.0027 91.3391 94.776 90.8751 95.432C90.4111 96.0827 89.7311 96.4907 88.8351 96.656L88.2911 96.744H84.7471V101H83.3231ZM90.1791 101L87.9071 96.312L89.3151 95.88L91.8111 101H90.1791ZM84.7471 95.392H87.8271C87.9285 95.392 88.0431 95.3867 88.1711 95.376C88.3045 95.3653 88.4298 95.3467 88.5471 95.32C88.9151 95.2347 89.2138 95.08 89.4431 94.856C89.6778 94.6267 89.8485 94.36 89.9551 94.056C90.0618 93.7467 90.1151 93.432 90.1151 93.112C90.1151 92.792 90.0618 92.48 89.9551 92.176C89.8485 91.8667 89.6778 91.5973 89.4431 91.368C89.2138 91.1387 88.9151 90.984 88.5471 90.904C88.4298 90.872 88.3045 90.8533 88.1711 90.848C88.0431 90.8373 87.9285 90.832 87.8271 90.832H84.7471V95.392ZM97.3171 101.24C96.4691 101.24 95.7278 101.053 95.0931 100.68C94.4638 100.301 93.9731 99.776 93.6211 99.104C93.2691 98.4267 93.0931 97.6373 93.0931 96.736C93.0931 95.792 93.2665 94.976 93.6131 94.288C93.9598 93.5947 94.4425 93.0613 95.0611 92.688C95.6851 92.3093 96.4158 92.12 97.2531 92.12C98.1225 92.12 98.8611 92.32 99.4691 92.72C100.082 93.12 100.541 93.6907 100.845 94.432C101.154 95.1733 101.288 96.056 101.245 97.08H99.8051V96.568C99.7891 95.5067 99.5731 94.7147 99.1571 94.192C98.7411 93.664 98.1225 93.4 97.3011 93.4C96.4211 93.4 95.7518 93.6827 95.2931 94.248C94.8345 94.8133 94.6051 95.624 94.6051 96.68C94.6051 97.6987 94.8345 98.488 95.2931 99.048C95.7518 99.608 96.4051 99.888 97.2531 99.888C97.8238 99.888 98.3198 99.7573 98.7411 99.496C99.1625 99.2347 99.4931 98.8587 99.7331 98.368L101.101 98.84C100.765 99.6027 100.258 100.195 99.5811 100.616C98.9091 101.032 98.1545 101.24 97.3171 101.24ZM94.1251 97.08V95.936H100.509V97.08H94.1251ZM106.76 101.24C105.949 101.24 105.267 101.04 104.712 100.64C104.157 100.235 103.736 99.688 103.448 99C103.165 98.3067 103.024 97.5307 103.024 96.672C103.024 95.8027 103.165 95.024 103.448 94.336C103.736 93.648 104.157 93.1067 104.712 92.712C105.272 92.3173 105.957 92.12 106.768 92.12C107.568 92.12 108.256 92.32 108.832 92.72C109.413 93.1147 109.859 93.656 110.168 94.344C110.477 95.032 110.632 95.808 110.632 96.672C110.632 97.536 110.477 98.312 110.168 99C109.859 99.688 109.413 100.235 108.832 100.64C108.256 101.04 107.565 101.24 106.76 101.24ZM102.784 104.84V92.36H104.056V98.72H104.216V104.84H102.784ZM106.584 99.936C107.155 99.936 107.627 99.792 108 99.504C108.373 99.216 108.653 98.8267 108.84 98.336C109.027 97.84 109.12 97.2853 109.12 96.672C109.12 96.064 109.027 95.5147 108.84 95.024C108.659 94.5333 108.376 94.144 107.992 93.856C107.613 93.568 107.131 93.424 106.544 93.424C105.984 93.424 105.52 93.5627 105.152 93.84C104.784 94.112 104.509 94.4933 104.328 94.984C104.147 95.4693 104.056 96.032 104.056 96.672C104.056 97.3013 104.144 97.864 104.32 98.36C104.501 98.8507 104.779 99.2373 105.152 99.52C105.525 99.7973 106.003 99.936 106.584 99.936ZM112.546 101V89.24H113.97V101H112.546ZM116.53 90.832V89.36H117.954V90.832H116.53ZM116.53 101V92.36H117.954V101H116.53ZM124.098 101.24C123.25 101.24 122.509 101.053 121.874 100.68C121.245 100.301 120.754 99.776 120.402 99.104C120.05 98.4267 119.874 97.6373 119.874 96.736C119.874 95.792 120.048 94.976 120.394 94.288C120.741 93.5947 121.224 93.0613 121.842 92.688C122.466 92.3093 123.197 92.12 124.034 92.12C124.904 92.12 125.642 92.32 126.25 92.72C126.864 93.12 127.322 93.6907 127.626 94.432C127.936 95.1733 128.069 96.056 128.026 97.08H126.586V96.568C126.57 95.5067 126.354 94.7147 125.938 94.192C125.522 93.664 124.904 93.4 124.082 93.4C123.202 93.4 122.533 93.6827 122.074 94.248C121.616 94.8133 121.386 95.624 121.386 96.68C121.386 97.6987 121.616 98.488 122.074 99.048C122.533 99.608 123.186 99.888 124.034 99.888C124.605 99.888 125.101 99.7573 125.522 99.496C125.944 99.2347 126.274 98.8587 126.514 98.368L127.882 98.84C127.546 99.6027 127.04 100.195 126.362 100.616C125.69 101.032 124.936 101.24 124.098 101.24ZM120.906 97.08V95.936H127.29V97.08H120.906ZM133.072 101.232C132.042 101.232 131.197 101.008 130.536 100.56C129.88 100.107 129.477 99.4747 129.328 98.664L130.784 98.432C130.901 98.9013 131.17 99.2747 131.592 99.552C132.013 99.824 132.536 99.96 133.16 99.96C133.752 99.96 134.216 99.8373 134.552 99.592C134.888 99.3467 135.056 99.0133 135.056 98.592C135.056 98.3467 135 98.1493 134.888 98C134.776 97.8453 134.544 97.7013 134.192 97.568C133.845 97.4347 133.32 97.2747 132.616 97.088C131.853 96.8853 131.253 96.6747 130.816 96.456C130.378 96.2373 130.066 95.984 129.88 95.696C129.693 95.408 129.6 95.0587 129.6 94.648C129.6 94.1413 129.738 93.6987 130.016 93.32C130.293 92.936 130.68 92.64 131.176 92.432C131.677 92.224 132.258 92.12 132.92 92.12C133.576 92.12 134.162 92.224 134.68 92.432C135.197 92.64 135.613 92.936 135.928 93.32C136.248 93.6987 136.437 94.1413 136.496 94.648L135.04 94.912C134.97 94.448 134.746 94.0827 134.368 93.816C133.994 93.5493 133.512 93.408 132.92 93.392C132.36 93.3707 131.904 93.4693 131.552 93.688C131.205 93.9067 131.032 94.2027 131.032 94.576C131.032 94.784 131.096 94.9627 131.224 95.112C131.357 95.2613 131.6 95.4027 131.952 95.536C132.309 95.6693 132.826 95.8213 133.504 95.992C134.266 96.184 134.866 96.3947 135.304 96.624C135.746 96.848 136.061 97.1147 136.248 97.424C136.434 97.728 136.528 98.104 136.528 98.552C136.528 99.384 136.221 100.04 135.608 100.52C134.994 100.995 134.149 101.232 133.072 101.232Z" fill="#EBEBEB"/>
<circle cx="344.771" cy="-15.2051" r="60.7949" fill="url(#paint1_linear_111_7880)" fill-opacity="0.7"/>
<circle cx="344.771" cy="51.1292" r="60.7949" transform="rotate(70.2364 344.771 51.1292)" fill="url(#paint2_linear_111_7880)" fill-opacity="0.7"/>
<circle cx="372.922" cy="44.3686" r="60.7949" transform="rotate(59.9956 372.922 44.3686)" fill="url(#paint3_linear_111_7880)" fill-opacity="0.7"/>
</g>
<defs>
<linearGradient id="paint0_linear_111_7880" x1="-441" y1="305.5" x2="363.029" y2="-64.2615" gradientUnits="userSpaceOnUse">
<stop stop-color="#4B1802"/>
<stop offset="1" stop-color="#FC814A"/>
</linearGradient>
<linearGradient id="paint1_linear_111_7880" x1="355.004" y1="-5.57426" x2="279.763" y2="205.703" gradientUnits="userSpaceOnUse">
<stop stop-color="white" stop-opacity="0"/>
<stop offset="1" stop-color="white"/>
</linearGradient>
<linearGradient id="paint2_linear_111_7880" x1="355.004" y1="60.7601" x2="279.762" y2="272.037" gradientUnits="userSpaceOnUse">
<stop stop-color="white" stop-opacity="0"/>
<stop offset="1" stop-color="white"/>
</linearGradient>
<linearGradient id="paint3_linear_111_7880" x1="383.155" y1="53.9995" x2="307.914" y2="265.277" gradientUnits="userSpaceOnUse">
<stop stop-color="white" stop-opacity="0"/>
<stop offset="1" stop-color="white"/>
</linearGradient>
<clipPath id="clip0_111_7880">
<path d="M0 20C0 8.9543 8.95431 0 20 0H348C359.046 0 368 8.95431 368 20V112C368 123.046 359.046 132 348 132H20C8.9543 132 0 123.046 0 112V20Z" fill="white"/>
</clipPath>
</defs>
</svg>
