<svg width="24" height="24" viewBox="0 0 24 24" fill="none" xmlns="http://www.w3.org/2000/svg">
<path d="M10.325 4.317C10.751 3.901 11.377 3.901 11.803 4.317L13.425 5.939C13.851 6.365 13.851 6.991 13.425 7.417L11.803 9.039C11.377 9.455 10.751 9.455 10.325 9.039L8.703 7.417C8.277 6.991 8.277 6.365 8.703 5.939L10.325 4.317Z" fill="currentColor"/>
<path d="M8.325 14.317C8.751 13.901 9.377 13.901 9.803 14.317L11.425 15.939C11.851 16.365 11.851 16.991 11.425 17.417L9.803 19.039C9.377 19.455 8.751 19.455 8.325 19.039L6.703 17.417C6.277 16.991 6.277 16.365 6.703 15.939L8.325 14.317Z" fill="currentColor"/>
<path d="M14.325 10.317C14.751 9.901 15.377 9.901 15.803 10.317L17.425 11.939C17.851 12.365 17.851 12.991 17.425 13.417L15.803 15.039C15.377 15.455 14.751 15.455 14.325 15.039L12.703 13.417C12.277 12.991 12.277 12.365 12.703 11.939L14.325 10.317Z" fill="currentColor"/>
</svg>