<svg width="368" height="132" viewBox="0 0 368 132" fill="none" xmlns="http://www.w3.org/2000/svg">
<g clip-path="url(#clip0_111_7856)">
<rect width="368" height="132" rx="20" fill="url(#paint0_linear_111_7856)"/>
<path d="M38.14 72V64.86H19V58.11L32.83 28.8H41.08L27.25 58.11H38.14V46.86H45.46V58.11H49.51V64.86H45.46V72H38.14ZM54.3039 71.94V65.64L72.7839 49.17C74.2239 47.89 75.2239 46.68 75.7839 45.54C76.3439 44.4 76.6239 43.3 76.6239 42.24C76.6239 40.8 76.3139 39.52 75.6939 38.4C75.0739 37.26 74.2139 36.36 73.1139 35.7C72.0339 35.04 70.7839 34.71 69.3639 34.71C67.8639 34.71 66.5339 35.06 65.3739 35.76C64.2339 36.44 63.3439 37.35 62.7039 38.49C62.0639 39.63 61.7639 40.86 61.8039 42.18H54.3639C54.3639 39.3 55.0039 36.79 56.2839 34.65C57.5839 32.51 59.3639 30.85 61.6239 29.67C63.9039 28.49 66.5339 27.9 69.5139 27.9C72.2739 27.9 74.7539 28.52 76.9539 29.76C79.1539 30.98 80.8839 32.68 82.1439 34.86C83.4039 37.02 84.0339 39.51 84.0339 42.33C84.0339 44.39 83.7539 46.12 83.1939 47.52C82.6339 48.92 81.7939 50.21 80.6739 51.39C79.5739 52.57 78.2039 53.88 76.5639 55.32L63.4539 66.93L62.7939 65.13H84.0339V71.94H54.3039ZM106.814 72V64.86H87.6742V58.11L101.504 28.8H109.754L95.9242 58.11H106.814V46.86H114.134V58.11H118.184V64.86H114.134V72H106.814Z" fill="white"/>
<path d="M16.32 101L20.176 89.48H22.16L26.016 101H24.536L20.928 90.312H21.376L17.8 101H16.32ZM18.176 98.304V96.968H24.16V98.304H18.176ZM31.0881 101.24C30.2135 101.24 29.4695 101.045 28.8561 100.656C28.2481 100.261 27.7841 99.72 27.4641 99.032C27.1441 98.344 26.9788 97.56 26.9681 96.68C26.9788 95.7787 27.1468 94.9867 27.4721 94.304C27.8028 93.616 28.2748 93.08 28.8881 92.696C29.5015 92.312 30.2401 92.12 31.1041 92.12C32.0161 92.12 32.8001 92.344 33.4561 92.792C34.1175 93.24 34.5601 93.8533 34.7841 94.632L33.3761 95.056C33.1948 94.5547 32.8988 94.1653 32.4881 93.888C32.0828 93.6107 31.6161 93.472 31.0881 93.472C30.4961 93.472 30.0081 93.6107 29.6241 93.888C29.2401 94.16 28.9548 94.5387 28.7681 95.024C28.5815 95.504 28.4855 96.056 28.4801 96.68C28.4908 97.64 28.7121 98.416 29.1441 99.008C29.5815 99.5947 30.2295 99.888 31.0881 99.888C31.6535 99.888 32.1228 99.76 32.4961 99.504C32.8695 99.2427 33.1521 98.8667 33.3441 98.376L34.7841 98.752C34.4855 99.5573 34.0188 100.173 33.3841 100.6C32.7495 101.027 31.9841 101.24 31.0881 101.24ZM41.2409 101C40.7289 101.101 40.2222 101.141 39.7209 101.12C39.2249 101.104 38.7822 101.005 38.3929 100.824C38.0035 100.637 37.7075 100.349 37.5049 99.96C37.3342 99.6187 37.2409 99.2747 37.2249 98.928C37.2142 98.576 37.2089 98.1787 37.2089 97.736V89.96H38.6329V97.672C38.6329 98.024 38.6355 98.3253 38.6409 98.576C38.6515 98.8267 38.7075 99.0427 38.8089 99.224C39.0009 99.5653 39.3049 99.7653 39.7209 99.824C40.1422 99.8827 40.6489 99.8667 41.2409 99.776V101ZM35.4569 93.536V92.36H41.2409V93.536H35.4569ZM43.155 90.832V89.36H44.579V90.832H43.155ZM43.155 101V92.36H44.579V101H43.155ZM49.3154 101L46.1794 92.36H47.6194L50.0434 99.184L52.4594 92.36H53.9074L50.7714 101H49.3154ZM58.7859 101.24C57.9379 101.24 57.1965 101.053 56.5619 100.68C55.9325 100.301 55.4419 99.776 55.0899 99.104C54.7379 98.4267 54.5619 97.6373 54.5619 96.736C54.5619 95.792 54.7352 94.976 55.0819 94.288C55.4285 93.5947 55.9112 93.0613 56.5299 92.688C57.1539 92.3093 57.8845 92.12 58.7219 92.12C59.5912 92.12 60.3299 92.32 60.9379 92.72C61.5512 93.12 62.0099 93.6907 62.3139 94.432C62.6232 95.1733 62.7565 96.056 62.7139 97.08H61.2739V96.568C61.2579 95.5067 61.0419 94.7147 60.6259 94.192C60.2099 93.664 59.5912 93.4 58.7699 93.4C57.8899 93.4 57.2205 93.6827 56.7619 94.248C56.3032 94.8133 56.0739 95.624 56.0739 96.68C56.0739 97.6987 56.3032 98.488 56.7619 99.048C57.2205 99.608 57.8739 99.888 58.7219 99.888C59.2925 99.888 59.7885 99.7573 60.2099 99.496C60.6312 99.2347 60.9619 98.8587 61.2019 98.368L62.5699 98.84C62.2339 99.6027 61.7272 100.195 61.0499 100.616C60.3779 101.032 59.6232 101.24 58.7859 101.24ZM55.5939 97.08V95.936H61.9779V97.08H55.5939ZM72.4341 101.24C71.2875 101.24 70.3141 100.987 69.5141 100.48C68.7141 99.9733 68.1035 99.2693 67.6821 98.368C67.2661 97.4667 67.0581 96.424 67.0581 95.24C67.0581 94.056 67.2661 93.0133 67.6821 92.112C68.1035 91.2107 68.7141 90.5067 69.5141 90C70.3141 89.4933 71.2875 89.24 72.4341 89.24C73.7675 89.24 74.8635 89.5787 75.7221 90.256C76.5861 90.9333 77.1808 91.8453 77.5061 92.992L76.0581 93.376C75.8235 92.5173 75.4048 91.84 74.8021 91.344C74.1995 90.848 73.4101 90.6 72.4341 90.6C71.5755 90.6 70.8608 90.7947 70.2901 91.184C69.7195 91.5733 69.2901 92.1173 69.0021 92.816C68.7141 93.5093 68.5675 94.3173 68.5621 95.24C68.5568 96.1573 68.6981 96.9653 68.9861 97.664C69.2741 98.3573 69.7061 98.9013 70.2821 99.296C70.8581 99.6853 71.5755 99.88 72.4341 99.88C73.4101 99.88 74.1995 99.632 74.8021 99.136C75.4048 98.6347 75.8235 97.9573 76.0581 97.104L77.5061 97.488C77.1808 98.6293 76.5861 99.5413 75.7221 100.224C74.8635 100.901 73.7675 101.24 72.4341 101.24ZM81.7166 101.24C81.0713 101.24 80.53 101.123 80.0926 100.888C79.6606 100.648 79.3326 100.333 79.1086 99.944C78.89 99.5547 78.7806 99.128 78.7806 98.664C78.7806 98.2107 78.866 97.8187 79.0366 97.488C79.2126 97.152 79.458 96.8747 79.7726 96.656C80.0873 96.432 80.4633 96.256 80.9006 96.128C81.3113 96.016 81.77 95.92 82.2766 95.84C82.7886 95.7547 83.306 95.6773 83.8286 95.608C84.3513 95.5387 84.8393 95.472 85.2926 95.408L84.7806 95.704C84.7966 94.936 84.642 94.368 84.3166 94C83.9966 93.632 83.442 93.448 82.6526 93.448C82.13 93.448 81.6713 93.568 81.2766 93.808C80.8873 94.0427 80.6126 94.4267 80.4526 94.96L79.1006 94.552C79.3086 93.7947 79.7113 93.2 80.3086 92.768C80.906 92.336 81.6926 92.12 82.6686 92.12C83.4526 92.12 84.1246 92.2613 84.6846 92.544C85.25 92.8213 85.6553 93.2427 85.9006 93.808C86.0233 94.0747 86.1006 94.3653 86.1326 94.68C86.1646 94.9893 86.1806 95.3147 86.1806 95.656V101H84.9166V98.928L85.2126 99.12C84.8873 99.8187 84.4313 100.347 83.8446 100.704C83.2633 101.061 82.554 101.24 81.7166 101.24ZM81.9326 100.048C82.4446 100.048 82.8873 99.9573 83.2606 99.776C83.6393 99.5893 83.9433 99.3467 84.1726 99.048C84.402 98.744 84.5513 98.4133 84.6206 98.056C84.7006 97.7893 84.7433 97.4933 84.7486 97.168C84.7593 96.8373 84.7646 96.584 84.7646 96.408L85.2606 96.624C84.7966 96.688 84.3406 96.7493 83.8926 96.808C83.4446 96.8667 83.0206 96.9307 82.6206 97C82.2206 97.064 81.8606 97.1413 81.5406 97.232C81.306 97.3067 81.0846 97.4027 80.8766 97.52C80.674 97.6373 80.5086 97.7893 80.3806 97.976C80.258 98.1573 80.1966 98.384 80.1966 98.656C80.1966 98.8907 80.2553 99.1147 80.3726 99.328C80.4953 99.5413 80.682 99.7147 80.9326 99.848C81.1886 99.9813 81.522 100.048 81.9326 100.048ZM98.5886 101L98.5966 95.472C98.5966 94.8267 98.4233 94.3227 98.0766 93.96C97.7353 93.592 97.29 93.408 96.7406 93.408C96.4206 93.408 96.1166 93.4827 95.8286 93.632C95.5406 93.776 95.306 94.0053 95.1246 94.32C94.9433 94.6293 94.8526 95.0267 94.8526 95.512L94.1006 95.208C94.09 94.5947 94.2153 94.0587 94.4766 93.6C94.7433 93.136 95.106 92.776 95.5646 92.52C96.0233 92.264 96.5406 92.136 97.1166 92.136C98.018 92.136 98.7273 92.4107 99.2446 92.96C99.762 93.504 100.021 94.2373 100.021 95.16L100.013 101H98.5886ZM88.2526 101V92.36H89.5246V94.672H89.6846V101H88.2526ZM93.4286 101L93.4366 95.528C93.4366 94.8667 93.266 94.3493 92.9246 93.976C92.5833 93.5973 92.13 93.408 91.5646 93.408C91.0046 93.408 90.5513 93.6 90.2046 93.984C89.858 94.368 89.6846 94.8773 89.6846 95.512L88.9326 95.064C88.9326 94.504 89.066 94.0027 89.3326 93.56C89.5993 93.1173 89.962 92.7707 90.4206 92.52C90.8793 92.264 91.3993 92.136 91.9806 92.136C92.562 92.136 93.0686 92.2587 93.5006 92.504C93.9326 92.7493 94.266 93.1013 94.5006 93.56C94.7353 94.0133 94.8526 94.5547 94.8526 95.184L94.8446 101H93.4286ZM106.072 101.24C105.262 101.24 104.579 101.04 104.024 100.64C103.47 100.235 103.048 99.688 102.76 99C102.478 98.3067 102.336 97.5307 102.336 96.672C102.336 95.8027 102.478 95.024 102.76 94.336C103.048 93.648 103.47 93.1067 104.024 92.712C104.584 92.3173 105.27 92.12 106.08 92.12C106.88 92.12 107.568 92.32 108.144 92.72C108.726 93.1147 109.171 93.656 109.48 94.344C109.79 95.032 109.944 95.808 109.944 96.672C109.944 97.536 109.79 98.312 109.48 99C109.171 99.688 108.726 100.235 108.144 100.64C107.568 101.04 106.878 101.24 106.072 101.24ZM102.096 104.84V92.36H103.368V98.72H103.528V104.84H102.096ZM105.896 99.936C106.467 99.936 106.939 99.792 107.312 99.504C107.686 99.216 107.966 98.8267 108.152 98.336C108.339 97.84 108.432 97.2853 108.432 96.672C108.432 96.064 108.339 95.5147 108.152 95.024C107.971 94.5333 107.688 94.144 107.304 93.856C106.926 93.568 106.443 93.424 105.856 93.424C105.296 93.424 104.832 93.5627 104.464 93.84C104.096 94.112 103.822 94.4933 103.64 94.984C103.459 95.4693 103.368 96.032 103.368 96.672C103.368 97.3013 103.456 97.864 103.632 98.36C103.814 98.8507 104.091 99.2373 104.464 99.52C104.838 99.7973 105.315 99.936 105.896 99.936ZM114.154 101.24C113.509 101.24 112.967 101.123 112.53 100.888C112.098 100.648 111.77 100.333 111.546 99.944C111.327 99.5547 111.218 99.128 111.218 98.664C111.218 98.2107 111.303 97.8187 111.474 97.488C111.65 97.152 111.895 96.8747 112.21 96.656C112.525 96.432 112.901 96.256 113.338 96.128C113.749 96.016 114.207 95.92 114.714 95.84C115.226 95.7547 115.743 95.6773 116.266 95.608C116.789 95.5387 117.277 95.472 117.73 95.408L117.218 95.704C117.234 94.936 117.079 94.368 116.754 94C116.434 93.632 115.879 93.448 115.09 93.448C114.567 93.448 114.109 93.568 113.714 93.808C113.325 94.0427 113.05 94.4267 112.89 94.96L111.538 94.552C111.746 93.7947 112.149 93.2 112.746 92.768C113.343 92.336 114.13 92.12 115.106 92.12C115.89 92.12 116.562 92.2613 117.122 92.544C117.687 92.8213 118.093 93.2427 118.338 93.808C118.461 94.0747 118.538 94.3653 118.57 94.68C118.602 94.9893 118.618 95.3147 118.618 95.656V101H117.354V98.928L117.65 99.12C117.325 99.8187 116.869 100.347 116.282 100.704C115.701 101.061 114.991 101.24 114.154 101.24ZM114.37 100.048C114.882 100.048 115.325 99.9573 115.698 99.776C116.077 99.5893 116.381 99.3467 116.61 99.048C116.839 98.744 116.989 98.4133 117.058 98.056C117.138 97.7893 117.181 97.4933 117.186 97.168C117.197 96.8373 117.202 96.584 117.202 96.408L117.698 96.624C117.234 96.688 116.778 96.7493 116.33 96.808C115.882 96.8667 115.458 96.9307 115.058 97C114.658 97.064 114.298 97.1413 113.978 97.232C113.743 97.3067 113.522 97.4027 113.314 97.52C113.111 97.6373 112.946 97.7893 112.818 97.976C112.695 98.1573 112.634 98.384 112.634 98.656C112.634 98.8907 112.693 99.1147 112.81 99.328C112.933 99.5413 113.119 99.7147 113.37 99.848C113.626 99.9813 113.959 100.048 114.37 100.048ZM120.858 90.832V89.36H122.282V90.832H120.858ZM120.858 101V92.36H122.282V101H120.858ZM128.179 105.08C127.725 105.08 127.283 105.011 126.851 104.872C126.419 104.733 126.021 104.523 125.659 104.24C125.301 103.963 125.003 103.611 124.763 103.184L126.067 102.496C126.28 102.917 126.581 103.224 126.971 103.416C127.365 103.608 127.771 103.704 128.187 103.704C128.736 103.704 129.192 103.603 129.555 103.4C129.917 103.203 130.184 102.907 130.355 102.512C130.531 102.117 130.616 101.627 130.611 101.04V98.68H130.779V92.36H132.043V101.056C132.043 101.291 132.035 101.517 132.019 101.736C132.008 101.955 131.981 102.171 131.939 102.384C131.827 102.997 131.605 103.501 131.275 103.896C130.944 104.296 130.517 104.592 129.995 104.784C129.472 104.981 128.867 105.08 128.179 105.08ZM128.075 101.24C127.269 101.24 126.579 101.04 126.003 100.64C125.427 100.235 124.981 99.688 124.667 99C124.357 98.312 124.203 97.536 124.203 96.672C124.203 95.808 124.357 95.032 124.667 94.344C124.981 93.656 125.427 93.1147 126.003 92.72C126.579 92.32 127.267 92.12 128.067 92.12C128.883 92.12 129.568 92.3173 130.123 92.712C130.677 93.1067 131.096 93.648 131.379 94.336C131.667 95.024 131.811 95.8027 131.811 96.672C131.811 97.5307 131.667 98.3067 131.379 99C131.096 99.688 130.677 100.235 130.123 100.64C129.568 101.04 128.885 101.24 128.075 101.24ZM128.251 99.936C128.832 99.936 129.309 99.7973 129.683 99.52C130.056 99.2373 130.331 98.8507 130.507 98.36C130.688 97.864 130.779 97.3013 130.779 96.672C130.779 96.032 130.688 95.4693 130.507 94.984C130.331 94.4933 130.059 94.112 129.691 93.84C129.323 93.5627 128.856 93.424 128.291 93.424C127.704 93.424 127.219 93.568 126.835 93.856C126.456 94.144 126.173 94.5333 125.987 95.024C125.805 95.5147 125.715 96.064 125.715 96.672C125.715 97.2853 125.808 97.84 125.995 98.336C126.181 98.8267 126.461 99.216 126.835 99.504C127.213 99.792 127.685 99.936 128.251 99.936ZM140.428 101V96.672C140.428 96.2613 140.391 95.8667 140.316 95.488C140.247 95.1093 140.122 94.7707 139.94 94.472C139.764 94.168 139.524 93.928 139.22 93.752C138.922 93.576 138.543 93.488 138.084 93.488C137.727 93.488 137.402 93.5493 137.108 93.672C136.82 93.7893 136.572 93.9707 136.364 94.216C136.156 94.4613 135.994 94.7707 135.876 95.144C135.764 95.512 135.708 95.9467 135.708 96.448L134.772 96.16C134.772 95.3227 134.922 94.6053 135.22 94.008C135.524 93.4053 135.948 92.944 136.492 92.624C137.042 92.2987 137.687 92.136 138.428 92.136C138.988 92.136 139.466 92.224 139.86 92.4C140.255 92.576 140.583 92.8107 140.844 93.104C141.106 93.392 141.311 93.7173 141.46 94.08C141.61 94.4373 141.714 94.8027 141.772 95.176C141.836 95.544 141.868 95.8933 141.868 96.224V101H140.428ZM134.268 101V92.36H135.548V94.672H135.708V101H134.268ZM147.212 101.232C146.183 101.232 145.337 101.008 144.676 100.56C144.02 100.107 143.617 99.4747 143.468 98.664L144.924 98.432C145.041 98.9013 145.311 99.2747 145.732 99.552C146.153 99.824 146.676 99.96 147.3 99.96C147.892 99.96 148.356 99.8373 148.692 99.592C149.028 99.3467 149.196 99.0133 149.196 98.592C149.196 98.3467 149.14 98.1493 149.028 98C148.916 97.8453 148.684 97.7013 148.332 97.568C147.985 97.4347 147.46 97.2747 146.756 97.088C145.993 96.8853 145.393 96.6747 144.956 96.456C144.519 96.2373 144.207 95.984 144.02 95.696C143.833 95.408 143.74 95.0587 143.74 94.648C143.74 94.1413 143.879 93.6987 144.156 93.32C144.433 92.936 144.82 92.64 145.316 92.432C145.817 92.224 146.399 92.12 147.06 92.12C147.716 92.12 148.303 92.224 148.82 92.432C149.337 92.64 149.753 92.936 150.068 93.32C150.388 93.6987 150.577 94.1413 150.636 94.648L149.18 94.912C149.111 94.448 148.887 94.0827 148.508 93.816C148.135 93.5493 147.652 93.408 147.06 93.392C146.5 93.3707 146.044 93.4693 145.692 93.688C145.345 93.9067 145.172 94.2027 145.172 94.576C145.172 94.784 145.236 94.9627 145.364 95.112C145.497 95.2613 145.74 95.4027 146.092 95.536C146.449 95.6693 146.967 95.8213 147.644 95.992C148.407 96.184 149.007 96.3947 149.444 96.624C149.887 96.848 150.201 97.1147 150.388 97.424C150.575 97.728 150.668 98.104 150.668 98.552C150.668 99.384 150.361 100.04 149.748 100.52C149.135 100.995 148.289 101.232 147.212 101.232Z" fill="#EBEBEB"/>
<circle cx="360.771" cy="0.794872" r="60.7949" fill="url(#paint1_linear_111_7856)" fill-opacity="0.7"/>
<circle cx="360.771" cy="67.1292" r="60.7949" transform="rotate(70.2364 360.771 67.1292)" fill="url(#paint2_linear_111_7856)" fill-opacity="0.7"/>
<circle cx="388.922" cy="60.3686" r="60.7949" transform="rotate(59.9956 388.922 60.3686)" fill="url(#paint3_linear_111_7856)" fill-opacity="0.7"/>
</g>
<defs>
<linearGradient id="paint0_linear_111_7856" x1="-109.396" y1="-68.5" x2="357.187" y2="150.299" gradientUnits="userSpaceOnUse">
<stop stop-color="#011C27"/>
<stop offset="1" stop-color="#05668D"/>
</linearGradient>
<linearGradient id="paint1_linear_111_7856" x1="371.004" y1="10.4257" x2="295.762" y2="221.703" gradientUnits="userSpaceOnUse">
<stop stop-color="white" stop-opacity="0"/>
<stop offset="1" stop-color="white"/>
</linearGradient>
<linearGradient id="paint2_linear_111_7856" x1="371.004" y1="76.7601" x2="295.763" y2="288.037" gradientUnits="userSpaceOnUse">
<stop stop-color="white" stop-opacity="0"/>
<stop offset="1" stop-color="white"/>
</linearGradient>
<linearGradient id="paint3_linear_111_7856" x1="399.155" y1="69.9995" x2="323.914" y2="281.277" gradientUnits="userSpaceOnUse">
<stop stop-color="white" stop-opacity="0"/>
<stop offset="1" stop-color="white"/>
</linearGradient>
<clipPath id="clip0_111_7856">
<rect width="368" height="132" rx="20" fill="white"/>
</clipPath>
</defs>
</svg>
