<svg width="368" height="132" viewBox="0 0 368 132" fill="none" xmlns="http://www.w3.org/2000/svg">
<g clip-path="url(#clip0_111_7863)">
<path d="M0 20C0 8.9543 8.95431 0 20 0H348C359.046 0 368 8.95431 368 20V112C368 123.046 359.046 132 348 132H20C8.9543 132 0 123.046 0 112V20Z" fill="url(#paint0_linear_111_7863)"/>
<path d="M22.39 72L37.27 35.64H18.4V28.8H45.01V35.64L30.19 72H22.39ZM63.3522 72.81C61.1922 72.81 59.1522 72.39 57.2322 71.55C55.3122 70.71 53.6422 69.52 52.2222 67.98C50.8222 66.44 49.8122 64.62 49.1922 62.52L56.1822 60.63C56.6822 62.35 57.5922 63.68 58.9122 64.62C60.2522 65.54 61.7222 65.99 63.3222 65.97C64.7422 65.97 66.0122 65.64 67.1322 64.98C68.2522 64.32 69.1322 63.43 69.7722 62.31C70.4122 61.17 70.7322 59.9 70.7322 58.5C70.7322 56.36 70.0422 54.57 68.6622 53.13C67.2822 51.69 65.5022 50.97 63.3222 50.97C62.6622 50.97 62.0122 51.06 61.3722 51.24C60.7522 51.42 60.1522 51.67 59.5722 51.99L56.2722 46.29L70.7922 33.87L71.4222 35.61H50.8722V28.8H77.3622V35.64L65.6922 46.86L65.6322 44.73C68.2522 44.91 70.4822 45.64 72.3222 46.92C74.1822 48.2 75.6022 49.85 76.5822 51.87C77.5822 53.89 78.0822 56.1 78.0822 58.5C78.0822 61.22 77.4122 63.66 76.0722 65.82C74.7522 67.98 72.9722 69.69 70.7322 70.95C68.5122 72.19 66.0522 72.81 63.3522 72.81ZM83.4555 71.94V65.64L101.935 49.17C103.375 47.89 104.375 46.68 104.935 45.54C105.495 44.4 105.775 43.3 105.775 42.24C105.775 40.8 105.465 39.52 104.845 38.4C104.225 37.26 103.365 36.36 102.265 35.7C101.185 35.04 99.9355 34.71 98.5155 34.71C97.0155 34.71 95.6855 35.06 94.5255 35.76C93.3855 36.44 92.4955 37.35 91.8555 38.49C91.2155 39.63 90.9155 40.86 90.9555 42.18H83.5155C83.5155 39.3 84.1555 36.79 85.4355 34.65C86.7355 32.51 88.5155 30.85 90.7755 29.67C93.0555 28.49 95.6855 27.9 98.6655 27.9C101.425 27.9 103.905 28.52 106.105 29.76C108.305 30.98 110.035 32.68 111.295 34.86C112.555 37.02 113.185 39.51 113.185 42.33C113.185 44.39 112.905 46.12 112.345 47.52C111.785 48.92 110.945 50.21 109.825 51.39C108.725 52.57 107.355 53.88 105.715 55.32L92.6055 66.93L91.9455 65.13H113.185V71.94H83.4555Z" fill="white"/>
<path d="M20.088 101V90.832H16.16V89.48H25.44V90.832H21.512V101H20.088ZM29.1125 101.24C28.2538 101.24 27.5125 101.045 26.8885 100.656C26.2698 100.267 25.7925 99.728 25.4565 99.04C25.1205 98.352 24.9525 97.5627 24.9525 96.672C24.9525 95.7653 25.1232 94.9707 25.4645 94.288C25.8058 93.6053 26.2885 93.0747 26.9125 92.696C27.5365 92.312 28.2698 92.12 29.1125 92.12C29.9765 92.12 30.7205 92.3147 31.3445 92.704C31.9685 93.088 32.4458 93.624 32.7765 94.312C33.1125 94.9947 33.2805 95.7813 33.2805 96.672C33.2805 97.5733 33.1125 98.368 32.7765 99.056C32.4405 99.7387 31.9605 100.275 31.3365 100.664C30.7125 101.048 29.9712 101.24 29.1125 101.24ZM29.1125 99.888C30.0085 99.888 30.6752 99.5893 31.1125 98.992C31.5498 98.3947 31.7685 97.6213 31.7685 96.672C31.7685 95.696 31.5472 94.92 31.1045 94.344C30.6618 93.7627 29.9978 93.472 29.1125 93.472C28.5098 93.472 28.0138 93.608 27.6245 93.88C27.2352 94.152 26.9445 94.528 26.7525 95.008C26.5605 95.488 26.4645 96.0427 26.4645 96.672C26.4645 97.6427 26.6885 98.4213 27.1365 99.008C27.5845 99.5947 28.2432 99.888 29.1125 99.888ZM39.8659 101C39.3539 101.101 38.8472 101.141 38.3459 101.12C37.8499 101.104 37.4072 101.005 37.0179 100.824C36.6285 100.637 36.3325 100.349 36.1299 99.96C35.9592 99.6187 35.8659 99.2747 35.8499 98.928C35.8392 98.576 35.8339 98.1787 35.8339 97.736V89.96H37.2579V97.672C37.2579 98.024 37.2605 98.3253 37.2659 98.576C37.2765 98.8267 37.3325 99.0427 37.4339 99.224C37.6259 99.5653 37.9299 99.7653 38.3459 99.824C38.7672 99.8827 39.2739 99.8667 39.8659 99.776V101ZM34.0819 93.536V92.36H39.8659V93.536H34.0819ZM44.076 101.24C43.4307 101.24 42.8893 101.123 42.452 100.888C42.02 100.648 41.692 100.333 41.468 99.944C41.2493 99.5547 41.14 99.128 41.14 98.664C41.14 98.2107 41.2253 97.8187 41.396 97.488C41.572 97.152 41.8173 96.8747 42.132 96.656C42.4467 96.432 42.8227 96.256 43.26 96.128C43.6707 96.016 44.1293 95.92 44.636 95.84C45.148 95.7547 45.6653 95.6773 46.188 95.608C46.7107 95.5387 47.1987 95.472 47.652 95.408L47.14 95.704C47.156 94.936 47.0013 94.368 46.676 94C46.356 93.632 45.8013 93.448 45.012 93.448C44.4893 93.448 44.0307 93.568 43.636 93.808C43.2467 94.0427 42.972 94.4267 42.812 94.96L41.46 94.552C41.668 93.7947 42.0707 93.2 42.668 92.768C43.2653 92.336 44.052 92.12 45.028 92.12C45.812 92.12 46.484 92.2613 47.044 92.544C47.6093 92.8213 48.0147 93.2427 48.26 93.808C48.3827 94.0747 48.46 94.3653 48.492 94.68C48.524 94.9893 48.54 95.3147 48.54 95.656V101H47.276V98.928L47.572 99.12C47.2467 99.8187 46.7907 100.347 46.204 100.704C45.6227 101.061 44.9133 101.24 44.076 101.24ZM44.292 100.048C44.804 100.048 45.2467 99.9573 45.62 99.776C45.9987 99.5893 46.3027 99.3467 46.532 99.048C46.7613 98.744 46.9107 98.4133 46.98 98.056C47.06 97.7893 47.1027 97.4933 47.108 97.168C47.1187 96.8373 47.124 96.584 47.124 96.408L47.62 96.624C47.156 96.688 46.7 96.7493 46.252 96.808C45.804 96.8667 45.38 96.9307 44.98 97C44.58 97.064 44.22 97.1413 43.9 97.232C43.6653 97.3067 43.444 97.4027 43.236 97.52C43.0333 97.6373 42.868 97.7893 42.74 97.976C42.6173 98.1573 42.556 98.384 42.556 98.656C42.556 98.8907 42.6147 99.1147 42.732 99.328C42.8547 99.5413 43.0413 99.7147 43.292 99.848C43.548 99.9813 43.8813 100.048 44.292 100.048ZM50.78 101V89.24H52.204V101H50.78ZM57.8075 101V89.48H62.3595C62.4715 89.48 62.6048 89.4853 62.7595 89.496C62.9142 89.5013 63.0635 89.5173 63.2075 89.544C63.8315 89.64 64.3542 89.8533 64.7755 90.184C65.2022 90.5147 65.5222 90.9333 65.7355 91.44C65.9488 91.9413 66.0555 92.4987 66.0555 93.112C66.0555 93.72 65.9462 94.2773 65.7275 94.784C65.5142 95.2853 65.1942 95.704 64.7675 96.04C64.3462 96.3707 63.8262 96.584 63.2075 96.68C63.0635 96.7013 62.9142 96.7173 62.7595 96.728C62.6048 96.7387 62.4715 96.744 62.3595 96.744H59.2315V101H57.8075ZM59.2315 95.392H62.3115C62.4128 95.392 62.5275 95.3867 62.6555 95.376C62.7888 95.3653 62.9142 95.3467 63.0315 95.32C63.3995 95.2347 63.6982 95.08 63.9275 94.856C64.1622 94.6267 64.3328 94.36 64.4395 94.056C64.5462 93.7467 64.5995 93.432 64.5995 93.112C64.5995 92.792 64.5462 92.48 64.4395 92.176C64.3328 91.8667 64.1622 91.5973 63.9275 91.368C63.6982 91.1387 63.3995 90.984 63.0315 90.904C62.9142 90.872 62.7888 90.8533 62.6555 90.848C62.5275 90.8373 62.4128 90.832 62.3115 90.832H59.2315V95.392ZM67.6513 101V92.36H68.9233V94.448L68.7153 94.176C68.8166 93.9093 68.9473 93.664 69.1073 93.44C69.2726 93.216 69.4566 93.032 69.6593 92.888C69.8833 92.7067 70.1366 92.568 70.4193 92.472C70.7019 92.376 70.9899 92.32 71.2833 92.304C71.5766 92.2827 71.8513 92.3013 72.1073 92.36V93.696C71.8086 93.616 71.4806 93.5947 71.1233 93.632C70.7659 93.6693 70.4353 93.8 70.1313 94.024C69.8539 94.2213 69.6379 94.4613 69.4833 94.744C69.3339 95.0267 69.2299 95.3333 69.1713 95.664C69.1126 95.9893 69.0833 96.3227 69.0833 96.664V101H67.6513ZM77.1438 101.24C76.2851 101.24 75.5438 101.045 74.9198 100.656C74.3011 100.267 73.8238 99.728 73.4878 99.04C73.1518 98.352 72.9838 97.5627 72.9838 96.672C72.9838 95.7653 73.1544 94.9707 73.4958 94.288C73.8371 93.6053 74.3198 93.0747 74.9438 92.696C75.5678 92.312 76.3011 92.12 77.1438 92.12C78.0078 92.12 78.7518 92.3147 79.3758 92.704C79.9998 93.088 80.4771 93.624 80.8078 94.312C81.1438 94.9947 81.3118 95.7813 81.3118 96.672C81.3118 97.5733 81.1438 98.368 80.8078 99.056C80.4718 99.7387 79.9918 100.275 79.3678 100.664C78.7438 101.048 78.0024 101.24 77.1438 101.24ZM77.1438 99.888C78.0398 99.888 78.7064 99.5893 79.1438 98.992C79.5811 98.3947 79.7998 97.6213 79.7998 96.672C79.7998 95.696 79.5784 94.92 79.1358 94.344C78.6931 93.7627 78.0291 93.472 77.1438 93.472C76.5411 93.472 76.0451 93.608 75.6558 93.88C75.2664 94.152 74.9758 94.528 74.7838 95.008C74.5918 95.488 74.4958 96.0427 74.4958 96.672C74.4958 97.6427 74.7198 98.4213 75.1678 99.008C75.6158 99.5947 76.2744 99.888 77.1438 99.888ZM86.2121 101.232C85.1828 101.232 84.3375 101.008 83.6761 100.56C83.0201 100.107 82.6175 99.4747 82.4681 98.664L83.9241 98.432C84.0415 98.9013 84.3108 99.2747 84.7321 99.552C85.1535 99.824 85.6761 99.96 86.3001 99.96C86.8921 99.96 87.3561 99.8373 87.6921 99.592C88.0281 99.3467 88.1961 99.0133 88.1961 98.592C88.1961 98.3467 88.1401 98.1493 88.0281 98C87.9161 97.8453 87.6841 97.7013 87.3321 97.568C86.9855 97.4347 86.4601 97.2747 85.7561 97.088C84.9935 96.8853 84.3935 96.6747 83.9561 96.456C83.5188 96.2373 83.2068 95.984 83.0201 95.696C82.8335 95.408 82.7401 95.0587 82.7401 94.648C82.7401 94.1413 82.8788 93.6987 83.1561 93.32C83.4335 92.936 83.8201 92.64 84.3161 92.432C84.8175 92.224 85.3988 92.12 86.0601 92.12C86.7161 92.12 87.3028 92.224 87.8201 92.432C88.3375 92.64 88.7535 92.936 89.0681 93.32C89.3881 93.6987 89.5775 94.1413 89.6361 94.648L88.1801 94.912C88.1108 94.448 87.8868 94.0827 87.5081 93.816C87.1348 93.5493 86.6521 93.408 86.0601 93.392C85.5001 93.3707 85.0441 93.4693 84.6921 93.688C84.3455 93.9067 84.1721 94.2027 84.1721 94.576C84.1721 94.784 84.2361 94.9627 84.3641 95.112C84.4975 95.2613 84.7401 95.4027 85.0921 95.536C85.4495 95.6693 85.9668 95.8213 86.6441 95.992C87.4068 96.184 88.0068 96.3947 88.4441 96.624C88.8868 96.848 89.2015 97.1147 89.3881 97.424C89.5748 97.728 89.6681 98.104 89.6681 98.552C89.6681 99.384 89.3615 100.04 88.7481 100.52C88.1348 100.995 87.2895 101.232 86.2121 101.232ZM95.4005 101.24C94.5898 101.24 93.9072 101.04 93.3525 100.64C92.7978 100.235 92.3765 99.688 92.0885 99C91.8058 98.3067 91.6645 97.5307 91.6645 96.672C91.6645 95.8027 91.8058 95.024 92.0885 94.336C92.3765 93.648 92.7978 93.1067 93.3525 92.712C93.9125 92.3173 94.5978 92.12 95.4085 92.12C96.2085 92.12 96.8965 92.32 97.4725 92.72C98.0538 93.1147 98.4992 93.656 98.8085 94.344C99.1178 95.032 99.2725 95.808 99.2725 96.672C99.2725 97.536 99.1178 98.312 98.8085 99C98.4992 99.688 98.0538 100.235 97.4725 100.64C96.8965 101.04 96.2058 101.24 95.4005 101.24ZM91.4245 104.84V92.36H92.6965V98.72H92.8565V104.84H91.4245ZM95.2245 99.936C95.7952 99.936 96.2672 99.792 96.6405 99.504C97.0138 99.216 97.2938 98.8267 97.4805 98.336C97.6672 97.84 97.7605 97.2853 97.7605 96.672C97.7605 96.064 97.6672 95.5147 97.4805 95.024C97.2992 94.5333 97.0165 94.144 96.6325 93.856C96.2538 93.568 95.7712 93.424 95.1845 93.424C94.6245 93.424 94.1605 93.5627 93.7925 93.84C93.4245 94.112 93.1498 94.4933 92.9685 94.984C92.7872 95.4693 92.6965 96.032 92.6965 96.672C92.6965 97.3013 92.7845 97.864 92.9605 98.36C93.1418 98.8507 93.4192 99.2373 93.7925 99.52C94.1658 99.7973 94.6432 99.936 95.2245 99.936ZM104.77 101.24C103.922 101.24 103.181 101.053 102.546 100.68C101.917 100.301 101.426 99.776 101.074 99.104C100.722 98.4267 100.546 97.6373 100.546 96.736C100.546 95.792 100.72 94.976 101.066 94.288C101.413 93.5947 101.896 93.0613 102.514 92.688C103.138 92.3093 103.869 92.12 104.706 92.12C105.576 92.12 106.314 92.32 106.922 92.72C107.536 93.12 107.994 93.6907 108.298 94.432C108.608 95.1733 108.741 96.056 108.698 97.08H107.258V96.568C107.242 95.5067 107.026 94.7147 106.61 94.192C106.194 93.664 105.576 93.4 104.754 93.4C103.874 93.4 103.205 93.6827 102.746 94.248C102.288 94.8133 102.058 95.624 102.058 96.68C102.058 97.6987 102.288 98.488 102.746 99.048C103.205 99.608 103.858 99.888 104.706 99.888C105.277 99.888 105.773 99.7573 106.194 99.496C106.616 99.2347 106.946 98.8587 107.186 98.368L108.554 98.84C108.218 99.6027 107.712 100.195 107.034 100.616C106.362 101.032 105.608 101.24 104.77 101.24ZM101.578 97.08V95.936H107.962V97.08H101.578ZM114.119 101.24C113.245 101.24 112.501 101.045 111.887 100.656C111.279 100.261 110.815 99.72 110.495 99.032C110.175 98.344 110.01 97.56 109.999 96.68C110.01 95.7787 110.178 94.9867 110.503 94.304C110.834 93.616 111.306 93.08 111.919 92.696C112.533 92.312 113.271 92.12 114.135 92.12C115.047 92.12 115.831 92.344 116.487 92.792C117.149 93.24 117.591 93.8533 117.815 94.632L116.407 95.056C116.226 94.5547 115.93 94.1653 115.519 93.888C115.114 93.6107 114.647 93.472 114.119 93.472C113.527 93.472 113.039 93.6107 112.655 93.888C112.271 94.16 111.986 94.5387 111.799 95.024C111.613 95.504 111.517 96.056 111.511 96.68C111.522 97.64 111.743 98.416 112.175 99.008C112.613 99.5947 113.261 99.888 114.119 99.888C114.685 99.888 115.154 99.76 115.527 99.504C115.901 99.2427 116.183 98.8667 116.375 98.376L117.815 98.752C117.517 99.5573 117.05 100.173 116.415 100.6C115.781 101.027 115.015 101.24 114.119 101.24ZM124.272 101C123.76 101.101 123.253 101.141 122.752 101.12C122.256 101.104 121.813 101.005 121.424 100.824C121.035 100.637 120.739 100.349 120.536 99.96C120.365 99.6187 120.272 99.2747 120.256 98.928C120.245 98.576 120.24 98.1787 120.24 97.736V89.96H121.664V97.672C121.664 98.024 121.667 98.3253 121.672 98.576C121.683 98.8267 121.739 99.0427 121.84 99.224C122.032 99.5653 122.336 99.7653 122.752 99.824C123.173 99.8827 123.68 99.8667 124.272 99.776V101ZM118.488 93.536V92.36H124.272V93.536H118.488ZM129.29 101.232C128.261 101.232 127.416 101.008 126.754 100.56C126.098 100.107 125.696 99.4747 125.546 98.664L127.002 98.432C127.12 98.9013 127.389 99.2747 127.81 99.552C128.232 99.824 128.754 99.96 129.378 99.96C129.97 99.96 130.434 99.8373 130.77 99.592C131.106 99.3467 131.274 99.0133 131.274 98.592C131.274 98.3467 131.218 98.1493 131.106 98C130.994 97.8453 130.762 97.7013 130.41 97.568C130.064 97.4347 129.538 97.2747 128.834 97.088C128.072 96.8853 127.472 96.6747 127.034 96.456C126.597 96.2373 126.285 95.984 126.098 95.696C125.912 95.408 125.818 95.0587 125.818 94.648C125.818 94.1413 125.957 93.6987 126.234 93.32C126.512 92.936 126.898 92.64 127.394 92.432C127.896 92.224 128.477 92.12 129.138 92.12C129.794 92.12 130.381 92.224 130.898 92.432C131.416 92.64 131.832 92.936 132.146 93.32C132.466 93.6987 132.656 94.1413 132.714 94.648L131.258 94.912C131.189 94.448 130.965 94.0827 130.586 93.816C130.213 93.5493 129.73 93.408 129.138 93.392C128.578 93.3707 128.122 93.4693 127.77 93.688C127.424 93.9067 127.25 94.2027 127.25 94.576C127.25 94.784 127.314 94.9627 127.442 95.112C127.576 95.2613 127.818 95.4027 128.17 95.536C128.528 95.6693 129.045 95.8213 129.722 95.992C130.485 96.184 131.085 96.3947 131.522 96.624C131.965 96.848 132.28 97.1147 132.466 97.424C132.653 97.728 132.746 98.104 132.746 98.552C132.746 99.384 132.44 100.04 131.826 100.52C131.213 100.995 130.368 101.232 129.29 101.232Z" fill="#EBEBEB"/>
<circle cx="60.7949" cy="60.7949" r="60.7949" transform="matrix(0.98358 -0.180472 -0.180472 -0.98358 242.846 210.377)" fill="url(#paint1_linear_111_7863)" fill-opacity="0.7"/>
<circle cx="60.7949" cy="60.7949" r="60.7949" transform="matrix(0.861239 -0.508199 -0.508199 -0.861239 312.573 185.768)" fill="url(#paint2_linear_111_7863)" fill-opacity="0.7"/>
<circle cx="60.7949" cy="60.7949" r="60.7949" transform="matrix(0.937869 -0.346989 -0.346989 -0.937869 315.458 203.807)" fill="url(#paint3_linear_111_7863)" fill-opacity="0.7"/>
</g>
<defs>
<linearGradient id="paint0_linear_111_7863" x1="-202.5" y1="209" x2="362.763" y2="-64.9263" gradientUnits="userSpaceOnUse">
<stop stop-color="#202151"/>
<stop offset="1" stop-color="#898BE8"/>
</linearGradient>
<linearGradient id="paint1_linear_111_7863" x1="71.0277" y1="70.4257" x2="-4.21349" y2="281.703" gradientUnits="userSpaceOnUse">
<stop stop-color="white" stop-opacity="0"/>
<stop offset="1" stop-color="white"/>
</linearGradient>
<linearGradient id="paint2_linear_111_7863" x1="71.0277" y1="70.4257" x2="-4.21349" y2="281.703" gradientUnits="userSpaceOnUse">
<stop stop-color="white" stop-opacity="0"/>
<stop offset="1" stop-color="white"/>
</linearGradient>
<linearGradient id="paint3_linear_111_7863" x1="71.0277" y1="70.4257" x2="-4.21349" y2="281.703" gradientUnits="userSpaceOnUse">
<stop stop-color="white" stop-opacity="0"/>
<stop offset="1" stop-color="white"/>
</linearGradient>
<clipPath id="clip0_111_7863">
<path d="M0 20C0 8.9543 8.95431 0 20 0H348C359.046 0 368 8.95431 368 20V112C368 123.046 359.046 132 348 132H20C8.9543 132 0 123.046 0 112V20Z" fill="white"/>
</clipPath>
</defs>
</svg>
