<svg width="20" height="20" viewBox="0 0 20 20" fill="none" xmlns="http://www.w3.org/2000/svg">
<path d="M3.3335 3.33333H8.3335M11.6668 3.33333H16.6668M3.3335 8.33333C3.3335 7.8913 3.50909 7.46738 3.82165 7.15482C4.13421 6.84226 4.55814 6.66666 5.00016 6.66666H6.66683C7.10886 6.66666 7.53278 6.84226 7.84534 7.15482C8.1579 7.46738 8.3335 7.8913 8.3335 8.33333V15C8.3335 15.442 8.1579 15.8659 7.84534 16.1785C7.53278 16.4911 7.10886 16.6667 6.66683 16.6667H5.00016C4.55814 16.6667 4.13421 16.4911 3.82165 16.1785C3.50909 15.8659 3.3335 15.442 3.3335 15V8.33333ZM11.6668 8.33333C11.6668 7.8913 11.8424 7.46738 12.155 7.15482C12.4675 6.84226 12.8915 6.66666 13.3335 6.66666H15.0002C15.4422 6.66666 15.8661 6.84226 16.1787 7.15482C16.4912 7.46738 16.6668 7.8913 16.6668 8.33333V9.99999C16.6668 10.442 16.4912 10.8659 16.1787 11.1785C15.8661 11.4911 15.4422 11.6667 15.0002 11.6667H13.3335C12.8915 11.6667 12.4675 11.4911 12.155 11.1785C11.8424 10.8659 11.6668 10.442 11.6668 9.99999V8.33333Z" stroke="#111111" stroke-width="1.25" stroke-linecap="round" stroke-linejoin="round"/>
</svg>
