<svg width="40" height="40" viewBox="0 0 40 40" fill="none" xmlns="http://www.w3.org/2000/svg">
<path d="M34.9064 40H5.0936C2.2848 40 0 37.7152 0 34.9064V5.0936C0 2.2848 2.2848 0 5.0936 0H34.9064C37.7152 0 40 2.2848 40 5.0936V34.9064C40 37.7152 37.7152 40 34.9064 40ZM5.0936 2.7784C3.8164 2.7784 2.7784 3.8164 2.7784 5.0936V34.9064C2.7784 36.1836 3.8164 37.222 5.0936 37.222H34.9064C36.1836 37.222 37.222 36.1836 37.222 34.9064V5.0936C37.222 3.8164 36.1836 2.7784 34.9064 2.7784H5.0936Z" fill="#050608"/>
<path d="M20.4868 18.036H13.3512V12.916H26.4916V9.21277H13.36L9.3252 13.248V30.7864H13.3512V21.2576H18.1044" fill="#050608"/>
<path d="M30.6745 18.0536L28.7505 21.1624H23.9013V30.7864H20.0525V21.258L22.5317 18.0536H30.6745Z" fill="#050608"/>
</svg>
