<svg width="20" height="20" viewBox="0 0 20 20" fill="none" xmlns="http://www.w3.org/2000/svg">
<path d="M2.5 8.68054C2.5 6.01588 2.5 4.68356 2.8146 4.23533C3.12919 3.78711 4.38194 3.35829 6.88743 2.50065L7.36477 2.33725C8.67082 1.89019 9.32384 1.66666 10 1.66666C10.6762 1.66666 11.3292 1.89019 12.6352 2.33725L13.1126 2.50065C15.6181 3.35829 16.8708 3.78711 17.1854 4.23533C17.5 4.68356 17.5 6.01588 17.5 8.68054C17.5 9.08303 17.5 9.5195 17.5 9.99279C17.5 14.6912 13.9675 16.9712 11.7512 17.9394C11.15 18.202 10.8494 18.3333 10 18.3333C9.15062 18.3333 8.85001 18.202 8.2488 17.9394C6.03247 16.9712 2.5 14.6912 2.5 9.99279C2.5 9.5195 2.5 9.08303 2.5 8.68054Z" stroke="#111111" stroke-width="1.5"/>
<path d="M7.9165 10.3333L9.10698 11.6667L12.0832 8.33334" stroke="#111111" stroke-width="1.5" stroke-linecap="round" stroke-linejoin="round"/>
</svg>
