<svg width="20" height="20" viewBox="0 0 20 20" fill="none" xmlns="http://www.w3.org/2000/svg">
<g clip-path="url(#clip0_70_3661)">
<path d="M8.45828 7.33515L8.01648 7.94121L8.45828 7.33515ZM10.0002 2.58845L9.49261 3.14063C9.77958 3.40439 10.2207 3.40439 10.5077 3.14063L10.0002 2.58845ZM11.5421 7.33515L11.9838 7.94122V7.94122L11.5421 7.33515ZM10.0002 8.06331L10.0002 8.81331H10.0002L10.0002 8.06331ZM8.45828 7.33515L8.90008 6.72908C8.32851 6.31243 7.72355 5.809 7.26884 5.2819C6.7961 4.7339 6.5835 4.27277 6.5835 3.92896H5.8335H5.0835C5.0835 4.82273 5.59003 5.63223 6.13306 6.2617C6.69411 6.91207 7.40154 7.49294 8.01648 7.94121L8.45828 7.33515ZM5.8335 3.92896H6.5835C6.5835 3.09342 6.98893 2.6428 7.45294 2.48664C7.94353 2.32154 8.70752 2.41898 9.49261 3.14063L10.0002 2.58845L10.5077 2.03628C9.41787 1.03452 8.09853 0.68672 6.97451 1.06499C5.82393 1.45219 5.0835 2.53353 5.0835 3.92896H5.8335ZM11.5421 7.33515L11.9838 7.94122C12.5988 7.49295 13.3062 6.91209 13.8673 6.26171C14.4103 5.63223 14.9168 4.82273 14.9168 3.92895H14.1668H13.4168C13.4168 4.27277 13.2042 4.73392 12.7315 5.28191C12.2768 5.80901 11.6718 6.31244 11.1003 6.72909L11.5421 7.33515ZM14.1668 3.92895H14.9168C14.9168 2.53352 14.1764 1.45219 13.0258 1.06498C11.9018 0.686721 10.5825 1.03452 9.49261 2.03628L10.0002 2.58845L10.5077 3.14063C11.2928 2.41898 12.0568 2.32154 12.5474 2.48664C13.0114 2.64279 13.4168 3.09341 13.4168 3.92895H14.1668ZM8.45828 7.33515L8.01648 7.94121C8.6384 8.39456 9.17057 8.8133 10.0002 8.81331L10.0002 8.06331L10.0002 7.31331C9.74378 7.31331 9.61003 7.24661 8.90008 6.72908L8.45828 7.33515ZM11.5421 7.33515L11.1003 6.72909C10.3903 7.24661 10.2566 7.31331 10.0002 7.31331L10.0002 8.06331L10.0002 8.81331C10.8298 8.81331 11.3619 8.39457 11.9838 7.94122L11.5421 7.33515Z" fill="#111111"/>
<path d="M4.1665 16.9903H6.04978C6.89217 16.9903 7.74361 17.0781 8.56344 17.247C10.0136 17.5457 11.5405 17.5819 13.0056 17.3448C13.728 17.2278 14.4382 17.0491 15.0811 16.7388C15.6614 16.4587 16.3723 16.0638 16.8498 15.6216C17.3266 15.18 17.8232 14.4572 18.1756 13.8923C18.4778 13.4078 18.3317 12.8135 17.8536 12.4525C17.3226 12.0516 16.5346 12.0516 16.0037 12.4527L14.4977 13.5903C13.914 14.0312 13.2765 14.4371 12.517 14.5582C12.4257 14.5728 12.33 14.5861 12.2301 14.5977M12.2301 14.5977C12.2001 14.6011 12.1696 14.6045 12.1388 14.6076M12.2301 14.5977C12.3516 14.5716 12.4723 14.4967 12.5855 14.3979C13.1215 13.9301 13.1554 13.1417 12.6903 12.6193C12.5824 12.4981 12.4561 12.397 12.3157 12.3132C9.98461 10.9229 6.35768 11.9818 4.1665 13.5358M12.2301 14.5977C12.1997 14.6042 12.1693 14.6076 12.1388 14.6076M12.1388 14.6076C11.7027 14.6524 11.1925 14.664 10.6263 14.6105" stroke="#111111" stroke-width="1.5" stroke-linecap="round"/>
<rect x="1.6665" y="11.6667" width="2.5" height="6.66667" rx="1.25" stroke="#111111" stroke-width="1.5"/>
</g>
<defs>
<clipPath id="clip0_70_3661">
<rect width="20" height="20" fill="white"/>
</clipPath>
</defs>
</svg>
