<svg width="160" height="40" viewBox="0 0 160 40" fill="none" xmlns="http://www.w3.org/2000/svg">
<g clip-path="url(#clip0_28_5663)">
<path d="M53.7998 10.8856H65.3238V13.0048H56.1046V19.204H63.7346V21.3232H56.1046V29.43H53.7998V10.8856ZM78.4098 15.9188V29.4296H76.529L76.2374 27.6284C75.213 28.9352 73.7738 29.5888 71.9194 29.5888C70.3122 29.5888 69.0226 29.094 68.0514 28.1052C67.0802 27.116 66.5942 25.562 66.5942 23.4424V15.9188H68.7666V23.31C68.7666 24.7052 69.067 25.774 69.6674 26.5156C70.2854 27.2396 71.1598 27.6016 72.2902 27.6016C73.5266 27.6016 74.489 27.1604 75.1778 26.2772C75.8842 25.394 76.2374 24.1932 76.2374 22.6744V15.9188H78.4098ZM87.9942 15.76C89.6366 15.76 90.9522 16.2544 91.9414 17.2432C92.9482 18.2324 93.4514 19.7864 93.4514 21.906V29.4296H91.279V22.0384C91.279 20.6432 90.9614 19.5836 90.3254 18.8592C89.7074 18.1176 88.8066 17.7468 87.6234 17.7468C86.3514 17.7468 85.3538 18.1884 84.6298 19.0712C83.9054 19.9544 83.5434 21.1552 83.5434 22.6744V29.4296H81.371V15.9188H83.2522L83.5434 17.7468C84.5678 16.422 86.0514 15.76 87.9942 15.76ZM109.043 10.8856V29.43H107.162L106.871 27.2576C105.741 28.8116 104.195 29.5888 102.235 29.5888C100.981 29.5888 99.8594 29.3152 98.8702 28.7676C97.899 28.22 97.1306 27.4252 96.5654 26.3832C96.0182 25.3412 95.7442 24.1052 95.7442 22.6744C95.7442 21.3144 96.0182 20.1136 96.5654 19.0716C97.1306 18.0296 97.9078 17.2172 98.897 16.6344C99.8858 16.0516 100.999 15.76 102.235 15.76C103.33 15.76 104.266 15.9632 105.043 16.3692C105.82 16.758 106.429 17.2964 106.871 17.9852V10.8856H109.043ZM102.447 27.6548C103.312 27.6548 104.081 27.452 104.751 27.0456C105.44 26.6216 105.97 26.0388 106.341 25.2972C106.712 24.5376 106.897 23.6812 106.897 22.7276C106.897 21.756 106.712 20.8908 106.341 20.1312C105.97 19.354 105.44 18.7536 104.751 18.3296C104.081 17.9056 103.312 17.694 102.447 17.694C101.105 17.694 100.018 18.162 99.1882 19.098C98.3758 20.0164 97.9694 21.2084 97.9694 22.6744C97.9694 24.1404 98.3758 25.3412 99.1882 26.2772C100.018 27.1956 101.105 27.6548 102.447 27.6548ZM118.864 15.9188V18.038H117.778C116.489 18.038 115.561 18.4708 114.996 19.336C114.449 20.2016 114.175 21.27 114.175 22.5416V29.4296H112.003V15.9188H113.883L114.175 17.9588C114.563 17.3408 115.067 16.846 115.685 16.4752C116.303 16.1044 117.159 15.9188 118.255 15.9188H118.864ZM132.84 27.4428V29.4296H131.648C130.783 29.4296 130.165 29.2532 129.794 28.9C129.423 28.5468 129.229 28.0256 129.211 27.3368C128.169 28.838 126.659 29.5888 124.681 29.5888C123.179 29.5888 121.97 29.2356 121.051 28.5288C120.151 27.8224 119.7 26.86 119.7 25.6412C119.7 24.2816 120.159 23.2396 121.078 22.5152C122.014 21.7912 123.365 21.4292 125.131 21.4292H129.105V20.502C129.105 19.6188 128.805 18.93 128.204 18.4356C127.621 17.9412 126.8 17.6936 125.741 17.6936C124.805 17.6936 124.027 17.9056 123.409 18.3296C122.809 18.7356 122.438 19.2832 122.297 19.972H120.124C120.283 18.6476 120.866 17.614 121.873 16.8724C122.897 16.1308 124.221 15.76 125.847 15.76C127.577 15.76 128.911 16.1836 129.847 17.0316C130.801 17.8616 131.277 19.0624 131.277 20.6344V26.4624C131.277 27.116 131.577 27.4428 132.178 27.4428H132.84ZM129.105 23.2572H124.919C122.906 23.2572 121.899 24.0076 121.899 25.5088C121.899 26.18 122.164 26.7188 122.694 27.1248C123.224 27.5312 123.939 27.7344 124.84 27.7344C126.164 27.7344 127.206 27.39 127.966 26.7012C128.725 25.9944 129.105 25.0672 129.105 23.9192V23.2572ZM135.597 10.7C136.003 10.7 136.338 10.8324 136.603 11.0972C136.868 11.362 137.001 11.698 137.001 12.104C137.001 12.5104 136.868 12.8456 136.603 13.1108C136.338 13.3756 136.003 13.508 135.597 13.508C135.19 13.508 134.855 13.3756 134.59 13.1108C134.325 12.8456 134.193 12.5104 134.193 12.104C134.193 11.698 134.325 11.362 134.59 11.0972C134.855 10.8324 135.19 10.7 135.597 10.7ZM134.51 15.9188H136.683V29.4296H134.51V15.9188ZM141.354 24.9792C141.389 25.7916 141.743 26.4536 142.414 26.966C143.103 27.478 143.986 27.7344 145.063 27.7344C146.017 27.7344 146.785 27.5488 147.368 27.178C147.968 26.7892 148.269 26.286 148.269 25.668C148.269 25.138 148.127 24.7316 147.845 24.4492C147.562 24.1668 147.191 23.9724 146.732 23.8664C146.291 23.7604 145.655 23.6544 144.825 23.5484C143.659 23.4072 142.705 23.2216 141.963 22.992C141.222 22.7624 140.621 22.4004 140.162 21.906C139.703 21.3936 139.473 20.696 139.473 19.8132C139.473 19.0184 139.694 18.312 140.135 17.6936C140.595 17.0756 141.213 16.5988 141.99 16.2632C142.767 15.91 143.641 15.7332 144.613 15.7332C146.202 15.7332 147.491 16.1044 148.481 16.846C149.487 17.5876 150.043 18.6476 150.149 20.0252H147.977C147.889 19.3184 147.545 18.7356 146.944 18.2764C146.343 17.8172 145.593 17.5876 144.692 17.5876C143.774 17.5876 143.032 17.782 142.467 18.1704C141.902 18.5416 141.619 19.036 141.619 19.654C141.619 20.1132 141.751 20.4664 142.017 20.714C142.281 20.9612 142.617 21.1288 143.023 21.2172C143.447 21.3056 144.083 21.4028 144.931 21.5084C146.114 21.65 147.085 21.844 147.845 22.0916C148.622 22.3388 149.24 22.736 149.699 23.2836C150.176 23.8312 150.415 24.5728 150.415 25.5088C150.415 26.3212 150.176 27.0364 149.699 27.6548C149.222 28.2728 148.578 28.7496 147.765 29.0852C146.953 29.4208 146.052 29.5888 145.063 29.5888C143.297 29.5888 141.875 29.1824 140.798 28.37C139.738 27.5576 139.199 26.4272 139.182 24.9792H141.354ZM159.74 15.9188V18.038H158.654C157.365 18.038 156.437 18.4708 155.872 19.336C155.325 20.2016 155.051 21.27 155.051 22.5416V29.4296H152.879V15.9188H154.759L155.051 17.9588C155.439 17.3408 155.943 16.846 156.561 16.4752C157.179 16.1044 158.036 15.9188 159.131 15.9188H159.74Z" fill="#050608"/>
<path d="M34.9064 40H5.0936C2.2848 40 0 37.7152 0 34.9064V5.0936C0 2.2848 2.2848 0 5.0936 0H34.9064C37.7152 0 40 2.2848 40 5.0936V34.9064C40 37.7152 37.7152 40 34.9064 40ZM5.0936 2.7784C3.8164 2.7784 2.7784 3.8164 2.7784 5.0936V34.9064C2.7784 36.1836 3.8164 37.222 5.0936 37.222H34.9064C36.1836 37.222 37.222 36.1836 37.222 34.9064V5.0936C37.222 3.8164 36.1836 2.7784 34.9064 2.7784H5.0936Z" fill="#050608"/>
<path d="M20.4868 18.036H13.3512V12.916H26.4916V9.21277H13.36L9.3252 13.248V30.7864H13.3512V21.2576H18.1044" fill="#050608"/>
<path d="M30.6742 18.0536L28.7502 21.1624H23.901V30.7864H20.0522V21.258L22.5314 18.0536H30.6742Z" fill="#050608"/>
</g>
<defs>
<clipPath id="clip0_28_5663">
<rect width="159.6" height="40" fill="white"/>
</clipPath>
</defs>
</svg>
