<svg width="21" height="20" viewBox="0 0 21 20" fill="none" xmlns="http://www.w3.org/2000/svg">
<path d="M10.0568 9.21632C9.98111 9.20875 9.89024 9.20875 9.80695 9.21632C8.00483 9.15574 6.57373 7.67921 6.57373 5.86195C6.57373 4.00682 8.07298 2.5 9.93568 2.5C11.7908 2.5 13.2976 4.00682 13.2976 5.86195C13.29 7.67921 11.859 9.15574 10.0568 9.21632Z" stroke="#111111" stroke-width="1.5" stroke-linecap="round" stroke-linejoin="round"/>
<path d="M15.5472 4.01465C17.0161 4.01465 18.1973 5.20344 18.1973 6.66483C18.1973 8.09593 17.0616 9.26201 15.6456 9.31501C15.585 9.30744 15.5169 9.30744 15.4487 9.31501" stroke="#111111" stroke-width="1.5" stroke-linecap="round" stroke-linejoin="round"/>
<path d="M4.34395 4.01442C2.87499 4.01442 1.69377 5.20321 1.69377 6.6646C1.69377 8.0957 2.82956 9.26178 4.24551 9.31478C4.30609 9.30721 4.37424 9.30721 4.44238 9.31478" stroke="#111111" stroke-width="1.5" stroke-linecap="round" stroke-linejoin="round"/>
<path d="M6.27079 12.0103C4.43838 13.2369 4.43838 15.2359 6.27079 16.455C8.35308 17.8483 11.768 17.8483 13.8503 16.455C15.6827 15.2284 15.6827 13.2294 13.8503 12.0103C11.7756 10.6246 8.36065 10.6246 6.27079 12.0103Z" stroke="#111111" stroke-width="1.5" stroke-linecap="round" stroke-linejoin="round"/>
<path d="M17.0088 16.1295C17.554 16.0159 18.0689 15.7963 18.4929 15.4707C19.6741 14.5848 19.6741 13.1234 18.4929 12.2375C18.0764 11.9195 17.5691 11.7075 17.0315 11.5863" stroke="#111111" stroke-width="1.5" stroke-linecap="round" stroke-linejoin="round"/>
<path d="M3.17041 16.1295C2.62523 16.0159 2.11034 15.7963 1.68631 15.4707C0.505085 14.5848 0.505085 13.1234 1.68631 12.2375C2.10277 11.9195 2.61009 11.7075 3.14769 11.5863" stroke="#111111" stroke-width="1.5" stroke-linecap="round" stroke-linejoin="round"/>
</svg>
