<svg width="20" height="20" viewBox="0 0 20 20" fill="none" xmlns="http://www.w3.org/2000/svg">
<path d="M2.5 8.68055C2.5 6.0159 2.5 4.68357 2.8146 4.23535C3.12919 3.78712 4.38194 3.3583 6.88743 2.50067L7.36477 2.33727C8.67082 1.8902 9.32384 1.66667 10 1.66667C10.6762 1.66667 11.3292 1.8902 12.6352 2.33727L13.1126 2.50067C15.6181 3.3583 16.8708 3.78712 17.1854 4.23535C17.5 4.68357 17.5 6.0159 17.5 8.68055C17.5 9.08304 17.5 9.51952 17.5 9.9928C17.5 14.6912 13.9675 16.9712 11.7512 17.9394C11.15 18.202 10.8494 18.3333 10 18.3333C9.15062 18.3333 8.85001 18.202 8.2488 17.9394C6.03247 16.9712 2.5 14.6912 2.5 9.9928C2.5 9.51952 2.5 9.08304 2.5 8.68055Z" stroke="#111111" stroke-width="1.5"/>
<path d="M7.9165 10.3333L9.10698 11.6667L12.0832 8.33333" stroke="#111111" stroke-width="1.5" stroke-linecap="round" stroke-linejoin="round"/>
</svg>
