<svg width="142" height="48" viewBox="0 0 142 48" fill="none" xmlns="http://www.w3.org/2000/svg">
<rect x="1.16797" y="1" width="140.333" height="46" rx="7.5" fill="#FBFBFB"/>
<rect x="1.16797" y="1" width="140.333" height="46" rx="7.5" stroke="#DBDBDB"/>
<path d="M60.2109 24C60.2109 30.0375 55.3164 34.9375 49.2734 34.9375C43.2305 34.9375 38.3359 30.0375 38.3359 24C38.3359 17.957 43.2305 13.0625 49.2734 13.0625C55.3164 13.0625 60.2109 17.957 60.2109 24Z" fill="#283544"/>
<path d="M53.9313 21.2323C53.8717 21.2672 52.4508 22.0019 52.4508 23.6311C52.5178 25.4891 54.2438 26.1407 54.2734 26.1407C54.2438 26.1755 54.0129 27.0283 53.3287 27.9223C52.7857 28.6924 52.183 29.4688 51.2678 29.4688C50.3973 29.4688 50.0848 28.9555 49.0803 28.9555C48.0016 28.9555 47.6964 29.4688 46.8705 29.4688C45.9553 29.4688 45.308 28.6508 44.7354 27.8879C43.9915 26.8895 43.3592 25.3227 43.3369 23.8183C43.3218 23.0211 43.4859 22.2375 43.9022 21.5719C44.4898 20.6427 45.5389 20.0119 46.6846 19.9911C47.5624 19.9635 48.3437 20.5527 48.8794 20.5527C49.3928 20.5527 50.3526 19.9911 51.4386 19.9911C51.9074 19.9916 53.1574 20.1231 53.9313 21.2323ZM48.8052 19.8319C48.6489 19.1039 49.0803 18.3759 49.4821 17.9115C49.9955 17.3499 50.8063 16.9688 51.5056 16.9688C51.5502 17.6968 51.2673 18.4107 50.7617 18.9307C50.308 19.4924 49.5267 19.9151 48.8052 19.8319Z" fill="white"/>
<path d="M69.8279 29.5L73.2019 19.42H74.9379L78.3119 29.5H77.0169L73.8599 20.148H74.2519L71.1229 29.5H69.8279ZM71.4519 27.141V25.972H76.6879V27.141H71.4519ZM82.7851 29.71C82.0757 29.71 81.4784 29.535 80.9931 29.185C80.5077 28.8303 80.1391 28.352 79.8871 27.75C79.6397 27.1433 79.5161 26.4643 79.5161 25.713C79.5161 24.9523 79.6397 24.271 79.8871 23.669C80.1391 23.067 80.5077 22.5933 80.9931 22.248C81.4831 21.9027 82.0827 21.73 82.7921 21.73C83.4921 21.73 84.0941 21.905 84.5981 22.255C85.1067 22.6003 85.4964 23.074 85.7671 23.676C86.0377 24.278 86.1731 24.957 86.1731 25.713C86.1731 26.469 86.0377 27.148 85.7671 27.75C85.4964 28.352 85.1067 28.8303 84.5981 29.185C84.0941 29.535 83.4897 29.71 82.7851 29.71ZM79.3061 32.86V21.94H80.4191V27.505H80.5591V32.86H79.3061ZM82.6311 28.569C83.1304 28.569 83.5434 28.443 83.8701 28.191C84.1967 27.939 84.4417 27.5983 84.6051 27.169C84.7684 26.735 84.8501 26.2497 84.8501 25.713C84.8501 25.181 84.7684 24.7003 84.6051 24.271C84.4464 23.8417 84.1991 23.501 83.8631 23.249C83.5317 22.997 83.1094 22.871 82.5961 22.871C82.1061 22.871 81.7001 22.9923 81.3781 23.235C81.0561 23.473 80.8157 23.8067 80.6571 24.236C80.4984 24.6607 80.4191 25.153 80.4191 25.713C80.4191 26.2637 80.4961 26.756 80.6501 27.19C80.8087 27.6193 81.0514 27.9577 81.3781 28.205C81.7047 28.4477 82.1224 28.569 82.6311 28.569ZM90.9276 29.71C90.2183 29.71 89.6209 29.535 89.1356 29.185C88.6503 28.8303 88.2816 28.352 88.0296 27.75C87.7823 27.1433 87.6586 26.4643 87.6586 25.713C87.6586 24.9523 87.7823 24.271 88.0296 23.669C88.2816 23.067 88.6503 22.5933 89.1356 22.248C89.6256 21.9027 90.2253 21.73 90.9346 21.73C91.6346 21.73 92.2366 21.905 92.7406 22.255C93.2493 22.6003 93.6389 23.074 93.9096 23.676C94.1803 24.278 94.3156 24.957 94.3156 25.713C94.3156 26.469 94.1803 27.148 93.9096 27.75C93.6389 28.352 93.2493 28.8303 92.7406 29.185C92.2366 29.535 91.6323 29.71 90.9276 29.71ZM87.4486 32.86V21.94H88.5616V27.505H88.7016V32.86H87.4486ZM90.7736 28.569C91.2729 28.569 91.6859 28.443 92.0126 28.191C92.3393 27.939 92.5843 27.5983 92.7476 27.169C92.9109 26.735 92.9926 26.2497 92.9926 25.713C92.9926 25.181 92.9109 24.7003 92.7476 24.271C92.5889 23.8417 92.3416 23.501 92.0056 23.249C91.6743 22.997 91.2519 22.871 90.7386 22.871C90.2486 22.871 89.8426 22.9923 89.5206 23.235C89.1986 23.473 88.9583 23.8067 88.7996 24.236C88.6409 24.6607 88.5616 25.153 88.5616 25.713C88.5616 26.2637 88.6386 26.756 88.7926 27.19C88.9513 27.6193 89.1939 27.9577 89.5206 28.205C89.8473 28.4477 90.2649 28.569 90.7736 28.569ZM95.7381 29.5V19.21H96.9841V29.5H95.7381ZM102.108 29.71C101.366 29.71 100.718 29.5467 100.162 29.22C99.6118 28.8887 99.1824 28.429 98.8744 27.841C98.5664 27.2483 98.4124 26.5577 98.4124 25.769C98.4124 24.943 98.5641 24.229 98.8674 23.627C99.1708 23.0203 99.5931 22.5537 100.134 22.227C100.68 21.8957 101.32 21.73 102.052 21.73C102.813 21.73 103.459 21.905 103.991 22.255C104.528 22.605 104.929 23.1043 105.195 23.753C105.466 24.4017 105.583 25.174 105.545 26.07H104.285V25.622C104.271 24.6933 104.082 24.0003 103.718 23.543C103.354 23.081 102.813 22.85 102.094 22.85C101.324 22.85 100.739 23.0973 100.337 23.592C99.9361 24.0867 99.7354 24.796 99.7354 25.72C99.7354 26.6113 99.9361 27.302 100.337 27.792C100.739 28.282 101.31 28.527 102.052 28.527C102.552 28.527 102.986 28.4127 103.354 28.184C103.723 27.9553 104.012 27.6263 104.222 27.197L105.419 27.61C105.125 28.2773 104.682 28.7953 104.089 29.164C103.501 29.528 102.841 29.71 102.108 29.71ZM99.3154 26.07V25.069H104.901V26.07H99.3154Z" fill="#111111"/>
</svg>
