<svg width="464" height="44" viewBox="0 0 464 44" fill="none" xmlns="http://www.w3.org/2000/svg">
<path d="M8 0.75H456C460.28 0.75 463.75 4.21979 463.75 8.5V35.5C463.75 39.7802 460.28 43.25 456 43.25H8C3.71979 43.25 0.25 39.7802 0.25 35.5V8.5L0.259766 8.10156C0.467139 4.00651 3.85342 0.75 8 0.75Z" fill="#09215E"/>
<path d="M8 0.75H456C460.28 0.75 463.75 4.21979 463.75 8.5V35.5C463.75 39.7802 460.28 43.25 456 43.25H8C3.71979 43.25 0.25 39.7802 0.25 35.5V8.5L0.259766 8.10156C0.467139 4.00651 3.85342 0.75 8 0.75Z" stroke="#FBFBFB" stroke-width="0.5"/>
<path d="M217.406 27.18C216.794 27.18 216.242 27.076 215.75 26.868C215.262 26.66 214.858 26.364 214.538 25.98C214.222 25.592 214.016 25.134 213.92 24.606L215.024 24.432C215.164 24.976 215.454 25.402 215.894 25.71C216.338 26.014 216.86 26.166 217.46 26.166C217.848 26.166 218.198 26.106 218.51 25.986C218.826 25.862 219.076 25.686 219.26 25.458C219.444 25.23 219.536 24.96 219.536 24.648C219.536 24.456 219.502 24.292 219.434 24.156C219.37 24.016 219.28 23.898 219.164 23.802C219.052 23.702 218.924 23.618 218.78 23.55C218.636 23.482 218.486 23.426 218.33 23.382L216.128 22.728C215.888 22.656 215.656 22.566 215.432 22.458C215.208 22.346 215.008 22.208 214.832 22.044C214.656 21.876 214.516 21.676 214.412 21.444C214.308 21.208 214.256 20.93 214.256 20.61C214.256 20.098 214.388 19.662 214.652 19.302C214.92 18.938 215.282 18.66 215.738 18.468C216.194 18.276 216.708 18.182 217.28 18.186C217.86 18.19 218.378 18.294 218.834 18.498C219.294 18.698 219.674 18.986 219.974 19.362C220.278 19.738 220.482 20.188 220.586 20.712L219.452 20.91C219.392 20.558 219.258 20.256 219.05 20.004C218.846 19.748 218.59 19.552 218.282 19.416C217.974 19.276 217.636 19.204 217.268 19.2C216.916 19.196 216.598 19.252 216.314 19.368C216.03 19.484 215.804 19.646 215.636 19.854C215.468 20.058 215.384 20.294 215.384 20.562C215.384 20.826 215.46 21.04 215.612 21.204C215.764 21.364 215.95 21.492 216.17 21.588C216.394 21.68 216.612 21.756 216.824 21.816L218.468 22.29C218.656 22.342 218.872 22.414 219.116 22.506C219.364 22.598 219.604 22.728 219.836 22.896C220.068 23.06 220.26 23.28 220.412 23.556C220.564 23.828 220.64 24.172 220.64 24.588C220.64 25.004 220.556 25.374 220.388 25.698C220.224 26.022 219.994 26.294 219.698 26.514C219.402 26.73 219.058 26.894 218.666 27.006C218.274 27.122 217.854 27.18 217.406 27.18ZM221.779 19.374V18.27H222.847V19.374H221.779ZM221.779 27V20.52H222.847V27H221.779ZM227.029 30.06C226.689 30.06 226.357 30.008 226.033 29.904C225.709 29.8 225.411 29.642 225.139 29.43C224.871 29.222 224.647 28.958 224.467 28.638L225.445 28.122C225.605 28.438 225.831 28.668 226.123 28.812C226.419 28.956 226.723 29.028 227.035 29.028C227.447 29.028 227.789 28.952 228.061 28.8C228.333 28.652 228.533 28.43 228.661 28.134C228.793 27.838 228.857 27.47 228.853 27.03V25.26H228.979V20.52H229.927V27.042C229.927 27.218 229.921 27.388 229.909 27.552C229.901 27.716 229.881 27.878 229.849 28.038C229.765 28.498 229.599 28.876 229.351 29.172C229.103 29.472 228.783 29.694 228.391 29.838C227.999 29.986 227.545 30.06 227.029 30.06ZM226.951 27.18C226.347 27.18 225.829 27.03 225.397 26.73C224.965 26.426 224.631 26.016 224.395 25.5C224.163 24.984 224.047 24.402 224.047 23.754C224.047 23.106 224.163 22.524 224.395 22.008C224.631 21.492 224.965 21.086 225.397 20.79C225.829 20.49 226.345 20.34 226.945 20.34C227.557 20.34 228.071 20.488 228.487 20.784C228.903 21.08 229.217 21.486 229.429 22.002C229.645 22.518 229.753 23.102 229.753 23.754C229.753 24.398 229.645 24.98 229.429 25.5C229.217 26.016 228.903 26.426 228.487 26.73C228.071 27.03 227.559 27.18 226.951 27.18ZM227.083 26.202C227.519 26.202 227.877 26.098 228.157 25.89C228.437 25.678 228.643 25.388 228.775 25.02C228.911 24.648 228.979 24.226 228.979 23.754C228.979 23.274 228.911 22.852 228.775 22.488C228.643 22.12 228.439 21.834 228.163 21.63C227.887 21.422 227.537 21.318 227.113 21.318C226.673 21.318 226.309 21.426 226.021 21.642C225.737 21.858 225.525 22.15 225.385 22.518C225.249 22.886 225.181 23.298 225.181 23.754C225.181 24.214 225.251 24.63 225.391 25.002C225.531 25.37 225.741 25.662 226.021 25.878C226.305 26.094 226.659 26.202 227.083 26.202ZM235.976 27V23.754C235.976 23.446 235.948 23.15 235.892 22.866C235.84 22.582 235.746 22.328 235.61 22.104C235.478 21.876 235.298 21.696 235.07 21.564C234.846 21.432 234.562 21.366 234.218 21.366C233.95 21.366 233.706 21.412 233.486 21.504C233.27 21.592 233.084 21.728 232.928 21.912C232.772 22.096 232.65 22.328 232.562 22.608C232.478 22.884 232.436 23.21 232.436 23.586L231.734 23.37C231.734 22.742 231.846 22.204 232.07 21.756C232.298 21.304 232.616 20.958 233.024 20.718C233.436 20.474 233.92 20.352 234.476 20.352C234.896 20.352 235.254 20.418 235.55 20.55C235.846 20.682 236.092 20.858 236.288 21.078C236.484 21.294 236.638 21.538 236.75 21.81C236.862 22.078 236.94 22.352 236.984 22.632C237.032 22.908 237.056 23.17 237.056 23.418V27H235.976ZM231.356 27V20.52H232.316V22.254H232.436V27H231.356ZM240.658 27V18.36H241.726V27H240.658ZM247.901 27V23.754C247.901 23.446 247.873 23.15 247.817 22.866C247.765 22.582 247.671 22.328 247.535 22.104C247.403 21.876 247.223 21.696 246.995 21.564C246.771 21.432 246.487 21.366 246.143 21.366C245.875 21.366 245.631 21.412 245.411 21.504C245.195 21.592 245.009 21.728 244.853 21.912C244.697 22.096 244.575 22.328 244.487 22.608C244.403 22.884 244.361 23.21 244.361 23.586L243.659 23.37C243.659 22.742 243.771 22.204 243.995 21.756C244.223 21.304 244.541 20.958 244.949 20.718C245.361 20.474 245.845 20.352 246.401 20.352C246.821 20.352 247.179 20.418 247.475 20.55C247.771 20.682 248.017 20.858 248.213 21.078C248.409 21.294 248.563 21.538 248.675 21.81C248.787 22.078 248.865 22.352 248.909 22.632C248.957 22.908 248.981 23.17 248.981 23.418V27H247.901ZM243.281 27V20.52H244.241V22.254H244.361V27H243.281Z" fill="#FBFBFB"/>
</svg>
