<svg width="142" height="48" viewBox="0 0 142 48" fill="none" xmlns="http://www.w3.org/2000/svg">
<rect x="0.5" y="1" width="140.333" height="46" rx="7.5" fill="#FBFBFB"/>
<rect x="0.5" y="1" width="140.333" height="46" rx="7.5" stroke="#DBDBDB"/>
<path d="M47.8057 15.3506C46.5647 14.1079 44.9413 13.3196 43.1973 13.1128C41.4534 12.9061 39.6906 13.2929 38.1935 14.211C36.6964 15.129 35.5523 16.5247 34.9458 18.1729C34.3392 19.821 34.3057 21.6254 34.8506 23.2949L29.458 28.6875C29.3123 28.832 29.1968 29.0041 29.1181 29.1937C29.0395 29.3833 28.9994 29.5867 29 29.792V32.5937C29 33.0081 29.1646 33.4055 29.4577 33.6986C29.7507 33.9916 30.1481 34.1562 30.5625 34.1562H33.6875C33.8947 34.1562 34.0934 34.0739 34.2399 33.9274C34.3864 33.7809 34.4688 33.5822 34.4688 33.375V31.8125H36.0313C36.2385 31.8125 36.4372 31.7302 36.5837 31.5836C36.7302 31.4371 36.8125 31.2384 36.8125 31.0312V29.4687H38.375C38.4776 29.4688 38.5793 29.4487 38.6741 29.4095C38.7689 29.3702 38.8551 29.3127 38.9277 29.2402L39.8613 28.3056C40.6428 28.5598 41.4595 28.6887 42.2813 28.6875H42.291C43.8354 28.6856 45.3446 28.226 46.6279 27.3668C47.9112 26.5077 48.9111 25.2874 49.5012 23.8602C50.0913 22.433 50.2452 20.863 49.9434 19.3484C49.6417 17.8337 48.8977 16.4426 47.8057 15.3506ZM44.2344 20.4843C43.9253 20.4843 43.6233 20.3927 43.3663 20.221C43.1094 20.0493 42.9091 19.8053 42.7908 19.5198C42.6726 19.2343 42.6416 18.9201 42.7019 18.617C42.7622 18.3139 42.911 18.0355 43.1295 17.817C43.348 17.5985 43.6265 17.4497 43.9296 17.3894C44.2326 17.3291 44.5468 17.36 44.8323 17.4783C45.1178 17.5965 45.3619 17.7968 45.5336 18.0538C45.7052 18.3107 45.7969 18.6128 45.7969 18.9218C45.7969 19.3362 45.6323 19.7337 45.3392 20.0267C45.0462 20.3197 44.6488 20.4843 44.2344 20.4843Z" fill="#222325"/>
<path d="M65.7033 29.71C64.7 29.71 63.8483 29.4883 63.1483 29.045C62.4483 28.6017 61.914 27.9857 61.5453 27.197C61.1813 26.4083 60.9993 25.496 60.9993 24.46C60.9993 23.424 61.1813 22.5117 61.5453 21.723C61.914 20.9343 62.4483 20.3183 63.1483 19.875C63.8483 19.4317 64.7 19.21 65.7033 19.21C66.87 19.21 67.829 19.5063 68.5803 20.099C69.3363 20.6917 69.8566 21.4897 70.1413 22.493L68.8743 22.829C68.669 22.0777 68.3026 21.485 67.7753 21.051C67.248 20.617 66.5573 20.4 65.7033 20.4C64.952 20.4 64.3266 20.5703 63.8273 20.911C63.328 21.2517 62.9523 21.7277 62.7003 22.339C62.4483 22.9457 62.32 23.6527 62.3153 24.46C62.3106 25.2627 62.4343 25.9697 62.6863 26.581C62.9383 27.1877 63.3163 27.6637 63.8203 28.009C64.3243 28.3497 64.952 28.52 65.7033 28.52C66.5573 28.52 67.248 28.303 67.7753 27.869C68.3026 27.4303 68.669 26.8377 68.8743 26.091L70.1413 26.427C69.8566 27.4257 69.3363 28.2237 68.5803 28.821C67.829 29.4137 66.87 29.71 65.7033 29.71ZM71.5645 29.5V19.21H72.8105V29.5H71.5645ZM74.7988 20.603V19.315H76.0448V20.603H74.7988ZM74.7988 29.5V21.94H76.0448V29.5H74.7988ZM81.1691 29.71C80.4271 29.71 79.7785 29.5467 79.2231 29.22C78.6725 28.8887 78.2431 28.429 77.9351 27.841C77.6271 27.2483 77.4731 26.5577 77.4731 25.769C77.4731 24.943 77.6248 24.229 77.9281 23.627C78.2315 23.0203 78.6538 22.5537 79.1951 22.227C79.7411 21.8957 80.3805 21.73 81.1131 21.73C81.8738 21.73 82.5201 21.905 83.0521 22.255C83.5888 22.605 83.9901 23.1043 84.2561 23.753C84.5268 24.4017 84.6435 25.174 84.6061 26.07H83.3461V25.622C83.3321 24.6933 83.1431 24.0003 82.7791 23.543C82.4151 23.081 81.8738 22.85 81.1551 22.85C80.3851 22.85 79.7995 23.0973 79.3981 23.592C78.9968 24.0867 78.7961 24.796 78.7961 25.72C78.7961 26.6113 78.9968 27.302 79.3981 27.792C79.7995 28.282 80.3711 28.527 81.1131 28.527C81.6125 28.527 82.0465 28.4127 82.4151 28.184C82.7838 27.9553 83.0731 27.6263 83.2831 27.197L84.4801 27.61C84.1861 28.2773 83.7428 28.7953 83.1501 29.164C82.5621 29.528 81.9018 29.71 81.1691 29.71ZM78.3761 26.07V25.069H83.9621V26.07H78.3761ZM91.0905 29.5V25.713C91.0905 25.3537 91.0579 25.0083 90.9925 24.677C90.9319 24.3457 90.8222 24.0493 90.6635 23.788C90.5095 23.522 90.2995 23.312 90.0335 23.158C89.7722 23.004 89.4409 22.927 89.0395 22.927C88.7269 22.927 88.4422 22.9807 88.1855 23.088C87.9335 23.1907 87.7165 23.3493 87.5345 23.564C87.3525 23.7787 87.2102 24.0493 87.1075 24.376C87.0095 24.698 86.9605 25.0783 86.9605 25.517L86.1415 25.265C86.1415 24.5323 86.2722 23.9047 86.5335 23.382C86.7995 22.8547 87.1705 22.451 87.6465 22.171C88.1272 21.8863 88.6919 21.744 89.3405 21.744C89.8305 21.744 90.2482 21.821 90.5935 21.975C90.9389 22.129 91.2259 22.3343 91.4545 22.591C91.6832 22.843 91.8629 23.1277 91.9935 23.445C92.1242 23.7577 92.2152 24.0773 92.2665 24.404C92.3225 24.726 92.3505 25.0317 92.3505 25.321V29.5H91.0905ZM85.7005 29.5V21.94H86.8205V23.963H86.9605V29.5H85.7005ZM98.1394 29.5C97.6914 29.5887 97.2481 29.6237 96.8094 29.605C96.3754 29.591 95.9881 29.5047 95.6474 29.346C95.3068 29.1827 95.0478 28.9307 94.8704 28.59C94.7211 28.2913 94.6394 27.9903 94.6254 27.687C94.6161 27.379 94.6114 27.0313 94.6114 26.644V19.84H95.8574V26.588C95.8574 26.896 95.8598 27.1597 95.8644 27.379C95.8738 27.5983 95.9228 27.7873 96.0114 27.946C96.1794 28.2447 96.4454 28.4197 96.8094 28.471C97.1781 28.5223 97.6214 28.5083 98.1394 28.429V29.5ZM93.0784 22.969V21.94H98.1394V22.969H93.0784ZM102.113 29.5V19.42H103.359V29.5H102.113ZM105.207 29.5V19.42H108.315C108.418 19.42 108.598 19.4223 108.854 19.427C109.111 19.4317 109.356 19.4503 109.589 19.483C110.369 19.5857 111.02 19.8703 111.542 20.337C112.07 20.799 112.466 21.387 112.732 22.101C112.998 22.815 113.131 23.6013 113.131 24.46C113.131 25.3187 112.998 26.105 112.732 26.819C112.466 27.533 112.07 28.1233 111.542 28.59C111.02 29.052 110.369 29.3343 109.589 29.437C109.356 29.465 109.109 29.4837 108.847 29.493C108.591 29.4977 108.413 29.5 108.315 29.5H105.207ZM106.488 28.31H108.315C108.493 28.31 108.691 28.3053 108.91 28.296C109.13 28.282 109.321 28.261 109.484 28.233C110.035 28.1303 110.481 27.8993 110.821 27.54C111.162 27.1807 111.412 26.7327 111.57 26.196C111.729 25.6593 111.808 25.0807 111.808 24.46C111.808 23.8253 111.727 23.2397 111.563 22.703C111.405 22.1663 111.155 21.7207 110.814 21.366C110.474 21.0113 110.03 20.785 109.484 20.687C109.321 20.6543 109.127 20.6333 108.903 20.624C108.679 20.6147 108.483 20.61 108.315 20.61H106.488V28.31Z" fill="#111111"/>
</svg>
