<svg width="142" height="48" viewBox="0 0 142 48" fill="none" xmlns="http://www.w3.org/2000/svg">
<rect x="0.832031" y="1" width="140.333" height="46" rx="7.5" fill="#FBFBFB"/>
<rect x="0.832031" y="1" width="140.333" height="46" rx="7.5" stroke="#DBDBDB"/>
<path d="M54.8744 24.2429C54.8744 23.3436 54.8 22.6874 54.6388 22.0068H44.1602V26.0658H50.3109C50.1869 27.0745 49.5173 28.5936 48.0292 29.6144L48.0083 29.7503L51.3215 32.2656L51.551 32.2881C53.6591 30.3801 54.8744 27.5728 54.8744 24.2429Z" fill="#4285F4"/>
<path d="M44.1616 34.9375C47.175 34.9375 49.7047 33.9652 51.5525 32.2882L48.0306 29.6144C47.0882 30.2586 45.8233 30.7082 44.1616 30.7082C41.2103 30.7082 38.7053 28.8003 37.8124 26.1631L37.6815 26.174L34.2365 28.7869L34.1914 28.9096C36.0267 32.4825 39.7965 34.9375 44.1616 34.9375Z" fill="#34A853"/>
<path d="M37.8115 26.1632C37.5758 25.4826 37.4395 24.7534 37.4395 24C37.4395 23.2464 37.5758 22.5173 37.7991 21.8368L37.7928 21.6918L34.3046 19.037L34.1904 19.0902C33.434 20.5728 33 22.2378 33 24C33 25.7621 33.434 27.427 34.1904 28.9096L37.8115 26.1632Z" fill="#FBBC05"/>
<path d="M44.1617 17.2916C46.2574 17.2916 47.6711 18.1788 48.4771 18.9202L51.6269 15.9062C49.6925 14.1441 47.175 13.0625 44.1617 13.0625C39.7966 13.0625 36.0267 15.5173 34.1914 19.0902L37.8 21.8368C38.7054 19.1996 41.2103 17.2916 44.1617 17.2916Z" fill="#EB4335"/>
<path d="M69.7096 29.71C69.0189 29.71 68.3889 29.5887 67.8196 29.346C67.2502 29.1033 66.7602 28.7557 66.3496 28.303C65.9389 27.8457 65.6216 27.295 65.3976 26.651C65.1782 26.0023 65.0686 25.272 65.0686 24.46C65.0686 23.3867 65.2599 22.458 65.6426 21.674C66.0252 20.89 66.5642 20.2857 67.2596 19.861C67.9549 19.4317 68.7716 19.217 69.7096 19.217C70.8389 19.217 71.7489 19.4807 72.4396 20.008C73.1302 20.5307 73.6062 21.247 73.8676 22.157L72.6076 22.416C72.3976 21.8047 72.0522 21.317 71.5716 20.953C71.0909 20.589 70.4912 20.407 69.7726 20.407C69.0212 20.4023 68.3959 20.5703 67.8966 20.911C67.4019 21.247 67.0286 21.7207 66.7766 22.332C66.5246 22.9433 66.3962 23.6527 66.3916 24.46C66.3869 25.2627 66.5106 25.9673 66.7626 26.574C67.0146 27.1807 67.3902 27.6567 67.8896 28.002C68.3936 28.3427 69.0212 28.5153 69.7726 28.52C70.4212 28.5247 70.9672 28.401 71.4106 28.149C71.8539 27.897 72.1969 27.533 72.4396 27.057C72.6822 26.581 72.8292 26.0093 72.8806 25.342H70.7386V24.313H74.1966C74.2106 24.4063 74.2176 24.5183 74.2176 24.649C74.2222 24.775 74.2246 24.8613 74.2246 24.908C74.2246 25.8273 74.0519 26.651 73.7066 27.379C73.3659 28.1023 72.8596 28.6717 72.1876 29.087C71.5202 29.5023 70.6942 29.71 69.7096 29.71ZM78.5907 29.71C77.8394 29.71 77.1907 29.5397 76.6447 29.199C76.1034 28.8583 75.6857 28.387 75.3917 27.785C75.0977 27.183 74.9507 26.4923 74.9507 25.713C74.9507 24.9197 75.1 24.2243 75.3987 23.627C75.6974 23.0297 76.1197 22.5653 76.6657 22.234C77.2117 21.898 77.8534 21.73 78.5907 21.73C79.3467 21.73 79.9977 21.9003 80.5437 22.241C81.0897 22.577 81.5074 23.046 81.7967 23.648C82.0907 24.2453 82.2377 24.9337 82.2377 25.713C82.2377 26.5017 82.0907 27.197 81.7967 27.799C81.5027 28.3963 81.0827 28.8653 80.5367 29.206C79.9907 29.542 79.342 29.71 78.5907 29.71ZM78.5907 28.527C79.3747 28.527 79.958 28.2657 80.3407 27.743C80.7234 27.2203 80.9147 26.5437 80.9147 25.713C80.9147 24.859 80.721 24.18 80.3337 23.676C79.9464 23.1673 79.3654 22.913 78.5907 22.913C78.0634 22.913 77.6294 23.032 77.2887 23.27C76.948 23.508 76.6937 23.837 76.5257 24.257C76.3577 24.677 76.2737 25.1623 76.2737 25.713C76.2737 26.5623 76.4697 27.2437 76.8617 27.757C77.2537 28.2703 77.83 28.527 78.5907 28.527ZM86.7469 29.71C85.9956 29.71 85.3469 29.5397 84.8009 29.199C84.2596 28.8583 83.8419 28.387 83.5479 27.785C83.2539 27.183 83.1069 26.4923 83.1069 25.713C83.1069 24.9197 83.2562 24.2243 83.5549 23.627C83.8536 23.0297 84.2759 22.5653 84.8219 22.234C85.3679 21.898 86.0096 21.73 86.7469 21.73C87.5029 21.73 88.1539 21.9003 88.6999 22.241C89.2459 22.577 89.6636 23.046 89.9529 23.648C90.2469 24.2453 90.3939 24.9337 90.3939 25.713C90.3939 26.5017 90.2469 27.197 89.9529 27.799C89.6589 28.3963 89.2389 28.8653 88.6929 29.206C88.1469 29.542 87.4982 29.71 86.7469 29.71ZM86.7469 28.527C87.5309 28.527 88.1142 28.2657 88.4969 27.743C88.8796 27.2203 89.0709 26.5437 89.0709 25.713C89.0709 24.859 88.8772 24.18 88.4899 23.676C88.1026 23.1673 87.5216 22.913 86.7469 22.913C86.2196 22.913 85.7856 23.032 85.4449 23.27C85.1042 23.508 84.8499 23.837 84.6819 24.257C84.5139 24.677 84.4299 25.1623 84.4299 25.713C84.4299 26.5623 84.6259 27.2437 85.0179 27.757C85.4099 28.2703 85.9862 28.527 86.7469 28.527ZM94.7421 33.07C94.3454 33.07 93.9581 33.0093 93.5801 32.888C93.2021 32.7667 92.8544 32.5823 92.5371 32.335C92.2244 32.0923 91.9631 31.7843 91.7531 31.411L92.8941 30.809C93.0808 31.1777 93.3444 31.446 93.6851 31.614C94.0304 31.782 94.3851 31.866 94.7491 31.866C95.2298 31.866 95.6288 31.7773 95.9461 31.6C96.2634 31.4273 96.4968 31.1683 96.6461 30.823C96.8001 30.4777 96.8748 30.0483 96.8701 29.535V27.47H97.0171V21.94H98.1231V29.549C98.1231 29.7543 98.1161 29.9527 98.1021 30.144C98.0928 30.3353 98.0694 30.5243 98.0321 30.711C97.9341 31.2477 97.7404 31.6887 97.4511 32.034C97.1618 32.384 96.7884 32.643 96.3311 32.811C95.8738 32.9837 95.3441 33.07 94.7421 33.07ZM94.6511 29.71C93.9464 29.71 93.3421 29.535 92.8381 29.185C92.3341 28.8303 91.9444 28.352 91.6691 27.75C91.3984 27.148 91.2631 26.469 91.2631 25.713C91.2631 24.957 91.3984 24.278 91.6691 23.676C91.9444 23.074 92.3341 22.6003 92.8381 22.255C93.3421 21.905 93.9441 21.73 94.6441 21.73C95.3581 21.73 95.9578 21.9027 96.4431 22.248C96.9284 22.5933 97.2948 23.067 97.5421 23.669C97.7941 24.271 97.9201 24.9523 97.9201 25.713C97.9201 26.4643 97.7941 27.1433 97.5421 27.75C97.2948 28.352 96.9284 28.8303 96.4431 29.185C95.9578 29.535 95.3604 29.71 94.6511 29.71ZM94.8051 28.569C95.3138 28.569 95.7314 28.4477 96.0581 28.205C96.3848 27.9577 96.6251 27.6193 96.7791 27.19C96.9378 26.756 97.0171 26.2637 97.0171 25.713C97.0171 25.153 96.9378 24.6607 96.7791 24.236C96.6251 23.8067 96.3871 23.473 96.0651 23.235C95.7431 22.9923 95.3348 22.871 94.8401 22.871C94.3268 22.871 93.9021 22.997 93.5661 23.249C93.2348 23.501 92.9874 23.8417 92.8241 24.271C92.6654 24.7003 92.5861 25.181 92.5861 25.713C92.5861 26.2497 92.6678 26.735 92.8311 27.169C92.9944 27.5983 93.2394 27.939 93.5661 28.191C93.8974 28.443 94.3104 28.569 94.8051 28.569ZM99.9656 29.5V19.21H101.212V29.5H99.9656ZM106.336 29.71C105.594 29.71 104.945 29.5467 104.39 29.22C103.839 28.8887 103.41 28.429 103.102 27.841C102.794 27.2483 102.64 26.5577 102.64 25.769C102.64 24.943 102.792 24.229 103.095 23.627C103.398 23.0203 103.821 22.5537 104.362 22.227C104.908 21.8957 105.547 21.73 106.28 21.73C107.041 21.73 107.687 21.905 108.219 22.255C108.756 22.605 109.157 23.1043 109.423 23.753C109.694 24.4017 109.81 25.174 109.773 26.07H108.513V25.622C108.499 24.6933 108.31 24.0003 107.946 23.543C107.582 23.081 107.041 22.85 106.322 22.85C105.552 22.85 104.966 23.0973 104.565 23.592C104.164 24.0867 103.963 24.796 103.963 25.72C103.963 26.6113 104.164 27.302 104.565 27.792C104.966 28.282 105.538 28.527 106.28 28.527C106.779 28.527 107.213 28.4127 107.582 28.184C107.951 27.9553 108.24 27.6263 108.45 27.197L109.647 27.61C109.353 28.2773 108.91 28.7953 108.317 29.164C107.729 29.528 107.069 29.71 106.336 29.71ZM103.543 26.07V25.069H109.129V26.07H103.543Z" fill="#111111"/>
</svg>
