<svg width="160" height="40" viewBox="0 0 160 40" fill="none" xmlns="http://www.w3.org/2000/svg">
<g clip-path="url(#clip0_301_9363)">
<path d="M53.8008 10.8856H65.3248V13.0048H56.1056V19.204H63.7356V21.3232H56.1056V29.43H53.8008V10.8856ZM78.4108 15.9188V29.4296H76.53L76.2384 27.6284C75.214 28.9352 73.7748 29.5888 71.9204 29.5888C70.3132 29.5888 69.0236 29.094 68.0524 28.1052C67.0812 27.116 66.5952 25.562 66.5952 23.4424V15.9188H68.7676V23.31C68.7676 24.7052 69.068 25.774 69.6684 26.5156C70.2864 27.2396 71.1608 27.6016 72.2912 27.6016C73.5276 27.6016 74.49 27.1604 75.1788 26.2772C75.8852 25.394 76.2384 24.1932 76.2384 22.6744V15.9188H78.4108ZM87.9952 15.76C89.6376 15.76 90.9532 16.2544 91.9424 17.2432C92.9492 18.2324 93.4524 19.7864 93.4524 21.906V29.4296H91.28V22.0384C91.28 20.6432 90.9624 19.5836 90.3264 18.8592C89.7084 18.1176 88.8076 17.7468 87.6244 17.7468C86.3524 17.7468 85.3548 18.1884 84.6308 19.0712C83.9064 19.9544 83.5444 21.1552 83.5444 22.6744V29.4296H81.372V15.9188H83.2532L83.5444 17.7468C84.5688 16.422 86.0524 15.76 87.9952 15.76ZM109.044 10.8856V29.43H107.163L106.872 27.2576C105.742 28.8116 104.196 29.5888 102.236 29.5888C100.982 29.5888 99.8604 29.3152 98.8712 28.7676C97.9 28.22 97.1316 27.4252 96.5664 26.3832C96.0192 25.3412 95.7452 24.1052 95.7452 22.6744C95.7452 21.3144 96.0192 20.1136 96.5664 19.0716C97.1316 18.0296 97.9088 17.2172 98.898 16.6344C99.8868 16.0516 101 15.76 102.236 15.76C103.331 15.76 104.267 15.9632 105.044 16.3692C105.821 16.758 106.43 17.2964 106.872 17.9852V10.8856H109.044ZM102.448 27.6548C103.313 27.6548 104.082 27.452 104.752 27.0456C105.441 26.6216 105.971 26.0388 106.342 25.2972C106.713 24.5376 106.898 23.6812 106.898 22.7276C106.898 21.756 106.713 20.8908 106.342 20.1312C105.971 19.354 105.441 18.7536 104.752 18.3296C104.082 17.9056 103.313 17.694 102.448 17.694C101.106 17.694 100.019 18.162 99.1892 19.098C98.3768 20.0164 97.9704 21.2084 97.9704 22.6744C97.9704 24.1404 98.3768 25.3412 99.1892 26.2772C100.019 27.1956 101.106 27.6548 102.448 27.6548ZM118.865 15.9188V18.038H117.779C116.49 18.038 115.562 18.4708 114.997 19.336C114.45 20.2016 114.176 21.27 114.176 22.5416V29.4296H112.004V15.9188H113.884L114.176 17.9588C114.564 17.3408 115.068 16.846 115.686 16.4752C116.304 16.1044 117.16 15.9188 118.256 15.9188H118.865ZM132.841 27.4428V29.4296H131.649C130.784 29.4296 130.166 29.2532 129.795 28.9C129.424 28.5468 129.23 28.0256 129.212 27.3368C128.17 28.838 126.66 29.5888 124.682 29.5888C123.18 29.5888 121.971 29.2356 121.052 28.5288C120.152 27.8224 119.701 26.86 119.701 25.6412C119.701 24.2816 120.16 23.2396 121.079 22.5152C122.015 21.7912 123.366 21.4292 125.132 21.4292H129.106V20.502C129.106 19.6188 128.806 18.93 128.205 18.4356C127.622 17.9412 126.801 17.6936 125.742 17.6936C124.806 17.6936 124.028 17.9056 123.41 18.3296C122.81 18.7356 122.439 19.2832 122.298 19.972H120.125C120.284 18.6476 120.867 17.614 121.874 16.8724C122.898 16.1308 124.222 15.76 125.848 15.76C127.578 15.76 128.912 16.1836 129.848 17.0316C130.802 17.8616 131.278 19.0624 131.278 20.6344V26.4624C131.278 27.116 131.578 27.4428 132.179 27.4428H132.841ZM129.106 23.2572H124.92C122.907 23.2572 121.9 24.0076 121.9 25.5088C121.9 26.18 122.165 26.7188 122.695 27.1248C123.225 27.5312 123.94 27.7344 124.841 27.7344C126.165 27.7344 127.207 27.39 127.967 26.7012C128.726 25.9944 129.106 25.0672 129.106 23.9192V23.2572ZM135.598 10.7C136.004 10.7 136.339 10.8324 136.604 11.0972C136.869 11.362 137.002 11.698 137.002 12.104C137.002 12.5104 136.869 12.8456 136.604 13.1108C136.339 13.3756 136.004 13.508 135.598 13.508C135.191 13.508 134.856 13.3756 134.591 13.1108C134.326 12.8456 134.194 12.5104 134.194 12.104C134.194 11.698 134.326 11.362 134.591 11.0972C134.856 10.8324 135.191 10.7 135.598 10.7ZM134.511 15.9188H136.684V29.4296H134.511V15.9188ZM141.355 24.9792C141.39 25.7916 141.744 26.4536 142.415 26.966C143.104 27.478 143.987 27.7344 145.064 27.7344C146.018 27.7344 146.786 27.5488 147.369 27.178C147.969 26.7892 148.27 26.286 148.27 25.668C148.27 25.138 148.128 24.7316 147.846 24.4492C147.563 24.1668 147.192 23.9724 146.733 23.8664C146.292 23.7604 145.656 23.6544 144.826 23.5484C143.66 23.4072 142.706 23.2216 141.964 22.992C141.223 22.7624 140.622 22.4004 140.163 21.906C139.704 21.3936 139.474 20.696 139.474 19.8132C139.474 19.0184 139.695 18.312 140.136 17.6936C140.596 17.0756 141.214 16.5988 141.991 16.2632C142.768 15.91 143.642 15.7332 144.614 15.7332C146.203 15.7332 147.492 16.1044 148.482 16.846C149.488 17.5876 150.044 18.6476 150.15 20.0252H147.978C147.89 19.3184 147.546 18.7356 146.945 18.2764C146.344 17.8172 145.594 17.5876 144.693 17.5876C143.775 17.5876 143.033 17.782 142.468 18.1704C141.903 18.5416 141.62 19.036 141.62 19.654C141.62 20.1132 141.752 20.4664 142.018 20.714C142.282 20.9612 142.618 21.1288 143.024 21.2172C143.448 21.3056 144.084 21.4028 144.932 21.5084C146.115 21.65 147.086 21.844 147.846 22.0916C148.623 22.3388 149.241 22.736 149.7 23.2836C150.177 23.8312 150.416 24.5728 150.416 25.5088C150.416 26.3212 150.177 27.0364 149.7 27.6548C149.223 28.2728 148.579 28.7496 147.766 29.0852C146.954 29.4208 146.053 29.5888 145.064 29.5888C143.298 29.5888 141.876 29.1824 140.799 28.37C139.739 27.5576 139.2 26.4272 139.183 24.9792H141.355ZM159.741 15.9188V18.038H158.655C157.366 18.038 156.438 18.4708 155.873 19.336C155.326 20.2016 155.052 21.27 155.052 22.5416V29.4296H152.88V15.9188H154.76L155.052 17.9588C155.44 17.3408 155.944 16.846 156.562 16.4752C157.18 16.1044 158.037 15.9188 159.132 15.9188H159.741Z" fill="#050608"/>
<path d="M34.9064 40H5.0936C2.2848 40 0 37.7152 0 34.9064V5.0936C0 2.2848 2.2848 0 5.0936 0H34.9064C37.7152 0 40 2.2848 40 5.0936V34.9064C40 37.7152 37.7152 40 34.9064 40ZM5.0936 2.7784C3.8164 2.7784 2.7784 3.8164 2.7784 5.0936V34.9064C2.7784 36.1836 3.8164 37.222 5.0936 37.222H34.9064C36.1836 37.222 37.222 36.1836 37.222 34.9064V5.0936C37.222 3.8164 36.1836 2.7784 34.9064 2.7784H5.0936Z" fill="#050608"/>
<path d="M20.4858 18.036H13.3502V12.916H26.4906V9.2128H13.359L9.32422 13.248V30.7864H13.3502V21.2576H18.1034" fill="#050608"/>
<path d="M30.6728 18.0536L28.7488 21.1624H23.8996V30.7864H20.0508V21.258L22.53 18.0536H30.6728Z" fill="#050608"/>
</g>
<defs>
<clipPath id="clip0_301_9363">
<rect width="159.6" height="40" fill="white"/>
</clipPath>
</defs>
</svg>
